<svg xmlns="http://www.w3.org/2000/svg" xmlns:xlink="http://www.w3.org/1999/xlink" width="1920" height="434" viewBox="0 0 1920 434">
    <defs>
        <path id="a" d="M0 0h1920v831H0z"/>
        <path id="c" d="M0 .904h1065v495H0z"/>
        <linearGradient id="e" x1="0%" y1="50.5%" y2="50.5%">
            <stop offset="0%" stop-color="gray" stop-opacity=".25"/>
            <stop offset="54%" stop-color="gray" stop-opacity=".12"/>
            <stop offset="100%" stop-color="gray" stop-opacity=".1"/>
        </linearGradient>
        <linearGradient id="f" x1="0%" x2="100.84%" y1="49.5%" y2="49.5%">
            <stop offset="0%" stop-color="gray" stop-opacity=".25"/>
            <stop offset="54%" stop-color="gray" stop-opacity=".12"/>
            <stop offset="100%" stop-color="gray" stop-opacity=".1"/>
        </linearGradient>
        <linearGradient id="g" x1="0%" x2="100.84%" y1="50.5%" y2="50.5%">
            <stop offset="0%" stop-color="gray" stop-opacity=".25"/>
            <stop offset="54%" stop-color="gray" stop-opacity=".12"/>
            <stop offset="100%" stop-color="gray" stop-opacity=".1"/>
        </linearGradient>
        <path id="h" d="M0 .904h1065v496H0z"/>
        <linearGradient id="j" x1="0%" y1="50.5%" y2="50.5%">
            <stop offset="0%" stop-color="gray" stop-opacity=".25"/>
            <stop offset="54%" stop-color="gray" stop-opacity=".12"/>
            <stop offset="100%" stop-color="gray" stop-opacity=".1"/>
        </linearGradient>
        <linearGradient id="k" x1="0%" x2="100.84%" y1="49.5%" y2="49.5%">
            <stop offset="0%" stop-color="gray" stop-opacity=".25"/>
            <stop offset="54%" stop-color="gray" stop-opacity=".12"/>
            <stop offset="100%" stop-color="gray" stop-opacity=".1"/>
        </linearGradient>
        <linearGradient id="l" x1="0%" x2="100.84%" y1="50.5%" y2="50.5%">
            <stop offset="0%" stop-color="gray" stop-opacity=".25"/>
            <stop offset="54%" stop-color="gray" stop-opacity=".12"/>
            <stop offset="100%" stop-color="gray" stop-opacity=".1"/>
        </linearGradient>
    </defs>
    <g fill="none" fill-rule="evenodd" transform="translate(0 -391)">
        <mask id="b" fill="#fff">
            <use xlink:href="#a"/>
        </mask>
        <g mask="url(#b)" opacity=".795">
            <g transform="translate(-93 328)">
                <mask id="d" fill="#fff">
                    <use xlink:href="#c"/>
                </mask>
                <g mask="url(#d)">
                    <g transform="translate(-153 -58.096)">
                        <path fill="#FF388A" fill-rule="nonzero" d="M1146.052 398.711v-71.098h-42.178v71.098h-49.947v-109.98h-36.629v-82.206H987.33v-84.43h-62.157v84.43h-29.969v82.207h-35.518v-98.87h-19.98V139.87h-12.209v49.991h-71.036v315.497h-54.388v-33.327h-33.298v33.327h-54.388V398.711h-97.675v-71.098h-42.178v71.098h-2.22v136.642h-44.398v-79.985H374.64v79.985H330.24V288.732h-34.409v-82.207H169.298v82.207H136v434.364h1060V398.71z" opacity=".3"/>
                        <path fill="#FFF" fill-rule="nonzero" d="M308 341.096h-47v-27h47zM308 393.096h-47v-27h47zM308 445.096h-47v-27h47zM308 497.096h-47v-27h47zM308 549.096h-47v-27h47zM496 424.096h30v39h-30zM591 463.096h-30v-39h30zM496 486.096h30v39h-30zM591 525.096h-30v-39h30zM496 548.096h30v39h-30zM591 587.096h-30v-39h30zM757 215.096h40v51h-40zM757 288.096h40v51h-40zM757 362.096h40v51h-40zM757 435.096h40v51h-40zM757 508.096h40v51h-40zM883 319.096h149v43H883zM883 413.096h149v43H883zM884 506.096h149v43H884zM1146 424.096h50v64h-50zM1146 517.096h50v64h-50z" opacity=".4"/>
                        <path fill="#252223" fill-rule="nonzero" d="M430.389 174.764h-7.661a5.375 5.375 0 0 0 4.85-2.593 5.311 5.311 0 0 0 0-5.477 5.375 5.375 0 0 0-4.85-2.593h-62.055c-2.866.13-5.122 2.479-5.122 5.332 0 2.853 2.256 5.201 5.122 5.331h7.661a5.375 5.375 0 0 0-4.85 2.593 5.311 5.311 0 0 0 0 5.477 5.375 5.375 0 0 0 4.85 2.593h-10.723a5.375 5.375 0 0 0-4.85 2.593 5.311 5.311 0 0 0 0 5.477 5.375 5.375 0 0 0 4.85 2.593h62.055a5.375 5.375 0 0 0 4.85-2.593 5.311 5.311 0 0 0 0-5.477 5.375 5.375 0 0 0-4.85-2.593h10.723a5.375 5.375 0 0 0 4.85-2.593 5.311 5.311 0 0 0 0-5.477 5.375 5.375 0 0 0-4.85-2.593zM703.389 308.764h-7.661a5.375 5.375 0 0 0 4.85-2.593 5.311 5.311 0 0 0 0-5.477 5.375 5.375 0 0 0-4.85-2.593h-62.055c-2.866.13-5.122 2.479-5.122 5.332 0 2.853 2.256 5.201 5.122 5.331h7.661a5.375 5.375 0 0 0-4.85 2.593 5.311 5.311 0 0 0 0 5.477 5.375 5.375 0 0 0 4.85 2.593h-10.723a5.375 5.375 0 0 0-4.85 2.593 5.311 5.311 0 0 0 0 5.477 5.375 5.375 0 0 0 4.85 2.593h62.055a5.375 5.375 0 0 0 4.85-2.593 5.311 5.311 0 0 0 0-5.477 5.375 5.375 0 0 0-4.85-2.593h10.723a5.375 5.375 0 0 0 4.85-2.593 5.311 5.311 0 0 0 0-5.477 5.375 5.375 0 0 0-4.85-2.593zM1168.389 133.764h-7.661a5.375 5.375 0 0 0 4.85-2.593 5.311 5.311 0 0 0 0-5.477 5.375 5.375 0 0 0-4.85-2.593h-62.055c-2.866.13-5.122 2.479-5.122 5.332 0 2.853 2.256 5.201 5.122 5.331h7.661a5.375 5.375 0 0 0-4.85 2.593 5.311 5.311 0 0 0 0 5.477 5.375 5.375 0 0 0 4.85 2.593h-10.723a5.375 5.375 0 0 0-4.85 2.593 5.311 5.311 0 0 0 0 5.477 5.375 5.375 0 0 0 4.85 2.593h62.055c2.866-.13 5.122-2.478 5.122-5.331s-2.256-5.202-5.122-5.332h10.723a5.375 5.375 0 0 0 4.85-2.593 5.311 5.311 0 0 0 0-5.477 5.375 5.375 0 0 0-4.85-2.593z" opacity=".1"/>
                        <path fill="url(#e)" fill-rule="nonzero" d="M577 517.16c-.647.56-1 .87-1 .87.367-.23.704-.523 1-.87z"/>
                        <path fill="url(#f)" fill-rule="nonzero" d="M578 518.16c-.647.56-1 .87-1 .87.367-.23.704-.523 1-.87z"/>
                        <path fill="url(#g)" fill-rule="nonzero" d="M578 517.16c-.647.56-1 .87-1 .87.367-.23.704-.523 1-.87z"/>
                        <path fill="#000" fill-rule="nonzero" d="M692.33 625.729s-11.15-6.58-10.682-17.754l-13.725-66.302s13.38-12.827 5.887-28.85a26.86 26.86 0 0 0-1.316-2.486c-4.928-8.345-16.568-10.387-27.238-10.265 10.236.09 21.006 2.32 25.711 10.265a26.86 26.86 0 0 1 1.316 2.485c7.459 16.068-5.887 28.851-5.887 28.851l13.725 66.335c-.513 11.096 10.68 17.754 10.68 17.754 10.682 14.17 48.813 118.422 48.813 118.422l-47.519 7.601v.244l49.058-7.845s-38.143-104.285-48.824-118.455zM681.418 331.82s51.126 58.392 44.08 86.192c0 0-26.198-6.063-33.245 2.017 0 0-5.522-18.71-22.167-29.318-16.644-10.607-31.996-78.61 11.332-58.89z" opacity=".1"/>
                        <path fill="#000" fill-rule="nonzero" d="M607.17 219.736l13.918 2.717-13.917-2.717z" opacity=".05"/>
                        <ellipse cx="522.283" cy="496.513" fill="#F2F2F2" fill-rule="nonzero" rx="1.521" ry="2.021" transform="rotate(-25.74 522.283 496.513)"/>
                    </g>
                </g>
            </g>
            <g transform="translate(950 328)">
                <mask id="i" fill="#fff">
                    <use xlink:href="#h"/>
                </mask>
                <g mask="url(#i)">
                    <g transform="translate(-153 -58.096)">
                        <path fill="#FF388A" fill-rule="nonzero" d="M1145.52 327.211h-42.16v71.049h-49.926V288.357h-36.612v-82.15h-29.956v-84.37h-62.13v84.37h-29.955v82.15h-35.503V184.096h-103.18v320.737h-54.363v-33.304H668.45v33.304h-54.364V398.26h-97.632V327.21h-42.16v71.049h-2.219v136.546h-44.378v-79.93h-53.255v79.93h-44.378v-246.45h-34.393v-82.149h-126.48v82.15H135.91v434.062H1195.445v-324.16h-49.926z" opacity=".3"/>
                        <path fill="#FFF" fill-rule="nonzero" d="M156.989 313.89h46.597v26.643h-46.597zM307.876 340.533h-46.597V313.89h46.597zM156.989 366.066h46.597v26.643h-46.597zM307.876 392.71h-46.597v-26.644h46.597zM156.989 418.242h46.597v26.643h-46.597zM307.876 444.886h-46.597v-26.643h46.597zM156.989 470.419h46.597v26.643h-46.597zM307.876 497.061h-46.597v-26.643h46.597zM156.989 522.595h46.597v26.643h-46.597zM307.876 549.238h-46.597v-26.643h46.597zM495.375 423.793h29.955v38.855h-29.955zM590.789 462.648h-29.955v-38.855h29.955zM495.375 485.96h29.955v38.855h-29.955zM590.789 524.815h-29.955V485.96h29.955zM495.375 548.128h29.955v38.855h-29.955zM590.789 586.982h-29.955v-38.855h29.955zM756.098 215.088h39.941v51.066h-39.941zM756.098 288.357h39.941v51.066h-39.941zM756.098 361.626h39.941v51.066h-39.941zM756.098 434.894h39.941v51.066h-39.941zM756.098 508.163h39.941v51.066h-39.941zM882.022 319.441h148.668v43.295H882.022zM882.577 412.692h148.668v43.295H882.577zM883.132 505.943H1031.8v43.295H883.132zM169.193 229.52h19.97v42.185h-19.97z" opacity=".4"/>
                        <path fill="#252223" fill-rule="nonzero" d="M429.561 174.768h-7.633a5.347 5.347 0 0 0 4.834-2.6 5.354 5.354 0 0 0 0-5.49 5.347 5.347 0 0 0-4.834-2.6h-61.83a5.35 5.35 0 0 0-5.104 5.345 5.35 5.35 0 0 0 5.104 5.345h7.633a5.347 5.347 0 0 0-4.833 2.6 5.354 5.354 0 0 0 0 5.49 5.347 5.347 0 0 0 4.833 2.6h-10.684a5.347 5.347 0 0 0-4.833 2.6 5.354 5.354 0 0 0 0 5.491 5.347 5.347 0 0 0 4.833 2.6h61.83a5.347 5.347 0 0 0 4.834-2.6 5.354 5.354 0 0 0 0-5.49 5.347 5.347 0 0 0-4.834-2.6h10.684a5.347 5.347 0 0 0 4.834-2.6 5.354 5.354 0 0 0 0-5.491 5.347 5.347 0 0 0-4.834-2.6zM702.49 309.094h-7.634a5.347 5.347 0 0 0 4.834-2.6 5.354 5.354 0 0 0 0-5.49 5.347 5.347 0 0 0-4.834-2.6h-61.83a5.35 5.35 0 0 0-5.104 5.345 5.35 5.35 0 0 0 5.104 5.345h7.633a5.347 5.347 0 0 0-4.834 2.6 5.354 5.354 0 0 0 0 5.49 5.347 5.347 0 0 0 4.834 2.6h-10.684a5.347 5.347 0 0 0-4.834 2.6 5.354 5.354 0 0 0 0 5.491 5.347 5.347 0 0 0 4.834 2.6h61.83a5.347 5.347 0 0 0 4.834-2.6 5.354 5.354 0 0 0 0-5.49 5.347 5.347 0 0 0-4.834-2.6h10.684a5.347 5.347 0 0 0 4.834-2.6 5.354 5.354 0 0 0 0-5.491 5.347 5.347 0 0 0-4.834-2.6zM1167.354 133.693h-7.633a5.347 5.347 0 0 0 4.833-2.6 5.354 5.354 0 0 0 0-5.49 5.347 5.347 0 0 0-4.833-2.6h-61.83a5.35 5.35 0 0 0-5.105 5.345 5.35 5.35 0 0 0 5.104 5.345h7.633a5.347 5.347 0 0 0-4.833 2.6 5.354 5.354 0 0 0 0 5.491 5.347 5.347 0 0 0 4.833 2.6h-10.684a5.347 5.347 0 0 0-4.833 2.6 5.354 5.354 0 0 0 0 5.49 5.347 5.347 0 0 0 4.833 2.6h61.83a5.35 5.35 0 0 0 5.105-5.345 5.35 5.35 0 0 0-5.104-5.345h10.684a5.347 5.347 0 0 0 4.833-2.6 5.354 5.354 0 0 0 0-5.491 5.347 5.347 0 0 0-4.833-2.6z" opacity=".1"/>
                        <path fill="url(#j)" fill-rule="nonzero" d="M576.998 517.255c-.854.622-1.32.966-1.32.966.484-.256.93-.581 1.32-.966z"/>
                        <path fill="url(#k)" fill-rule="nonzero" d="M578.03 518.299c-.855.621-1.32.965-1.32.965.484-.256.929-.58 1.32-.965z"/>
                        <path fill="url(#l)" fill-rule="nonzero" d="M578.03 517.255c-.855.622-1.32.966-1.32.966.484-.256.929-.581 1.32-.966z"/>
                        <path fill="#000" fill-rule="nonzero" d="M692.249 625.97s-11.095-6.583-10.629-17.762l-13.657-66.33s13.313-12.833 5.858-28.864a26.92 26.92 0 0 0-1.31-2.486c-4.903-8.349-16.486-10.391-27.104-10.27 10.185.09 20.903 2.321 25.585 10.27a26.92 26.92 0 0 1 1.309 2.486c7.422 16.075-5.858 28.864-5.858 28.864L680.1 608.24c-.51 11.102 10.629 17.763 10.629 17.763C701.357 640.18 739.3 744.477 739.3 744.477l-47.285 7.604v.244l48.816-7.848s-37.955-104.33-48.583-118.507zM680.355 332.052s51.357 58.481 44.279 86.324c0 0-26.316-6.073-33.395 2.02 0 0-5.547-18.74-22.267-29.363-16.72-10.624-32.14-78.73 11.383-58.981z" opacity=".1"/>
                        <path fill="#000" fill-rule="nonzero" d="M606.664 219.736l13.905 2.717-13.905-2.717z" opacity=".05"/>
                        <ellipse cx="521.846" cy="496.513" fill="#F2F2F2" fill-rule="nonzero" rx="1.52" ry="2.02" transform="rotate(-25.74 521.846 496.513)"/>
                    </g>
                </g>
            </g>
        </g>
    </g>
</svg>
