<svg xmlns="http://www.w3.org/2000/svg" width="633" height="456" viewBox="0 0 633 456">
    <g fill="none" fill-rule="nonzero">
        <path fill="#3F3D56" d="M600 312H339V0h261v47.53h-1.289V1.294H340.29v309.414H598.71V199.15H600zM294 456H33V343.149h1.289v111.558H292.71V145.293H34.29v46.238H33V144h261z"/>
        <path fill="#2F2E41" d="M459.178 22C445.825 22 435 34.103 435 49.032V68h5.79l3.353-7.028-.838 7.028h37.219l3.047-6.389L482.81 68H487V53.107C487 35.927 474.544 22 459.178 22z"/>
        <path fill="#FFB8B8" d="M426 164l11.5 55.247s0 20.78 2.5 27.37c2.5 6.588 9.5 28.383 9.5 28.383l9.5-2.534-2-21.795s-.5-19.767-3.5-24.835l-1-51.699L426 164zM462 177.503l25.738 46.792s5.552 17.292 9.59 21.36L507.924 266l8.075-3.052-7.065-32.041s-5.552-15.259-10.599-20.345c0 0-7.065-41.705-15.14-44.248-8.075-2.543-21.196 11.19-21.196 11.19z"/>
        <path fill="#2F2E41" d="M460.073 268l-12.92 3.01v15.046l-7.453 16.55s-2.32 5.38 1.49 6.521c3.575 1.07 14.806 5.26 16.398-4.012a17.876 17.876 0 0 1 2.028-5.877 25.941 25.941 0 0 0 2.936-17.616L460.072 268zM518.004 259L506 260.739l2.51 26.086a4.467 4.467 0 0 1 .999 3.035c0 2.024-1 10.624 6.496 10.119 7.496-.506 9.995-4.048 9.995-6.071 0-2.024-3.998-15.683-3.998-15.683L518.004 259z"/>
        <circle cx="456" cy="48" r="14" fill="#FFB8B8"/>
        <path fill="#FFB8B8" d="M466.525 53.114s2.034 12.808 6.61 15.37c4.577 2.56 10.679 5.634 10.679 5.634S494.492 75.143 495 83.34L493.983 90l-56.95-1.025L435 73.094l16.271-4.099s1.526-8.709 0-12.807c-1.525-4.099 15.254-3.074 15.254-3.074zM434.494 87.987l-28.472 1.985c-6.254.437-11.828-4.342-12.002-10.636a6.947 6.947 0 0 1 1.319-4.628c4.068-5.107 23.391-25.024 23.391-25.024s13.221-8.172 15.764-7.661c2.542.51-5.085 12.768-9.662 13.79-4.576 1.02-.508-.512-.508-.512L405 77.261l23.9-2.553 5.593 13.279z"/>
        <path fill="#3F3D56" d="M275.18 456c-.146-.243-3.597-6.088-4.793-18.227-1.097-11.137-.391-29.909 9.203-56.094 18.176-49.606-4.189-89.63-4.417-90.03l1.103-.649c.058.101 5.829 10.306 9.238 26.555a117.463 117.463 0 0 1-4.729 64.575c-18.144 49.522-4.655 72.965-4.517 73.196l-1.088.674z"/>
        <circle cx="268.5" cy="280.5" r="8.5" fill="#FF388A"/>
        <circle cx="294.5" cy="311.5" r="8.5" fill="#FF388A"/>
        <circle cx="276.5" cy="331.5" r="8.5" fill="#FF388A"/>
        <circle cx="298.5" cy="349.5" r="8.5" fill="#FF388A"/>
        <circle cx="270.5" cy="376.5" r="8.5" fill="#FF388A"/>
        <path fill="#3F3D56" d="M280.333 456S272 435.429 297 420l-16.667 36zM270 456s-3.776-22.189-33-21.999L270 456z"/>
        <path fill="#A0616A" d="M184.333 254l-2.674 17.563-30.558 20.4s-16.067 7.6-15.055 12.321c.901 4.21 13.3 3.71 17.2-2.797l36.535-16.394L202 261.217 184.333 254zM189 422l1.312 19 12.688-.905L200.813 422z"/>
        <path fill="#2F2E41" d="M192.139 435.347s-1.793-6.777-3.586-6.325l-2.689 4.97s-12.1 11.296-15.685 11.747c0 0-11.652 3.615 0 9.037h13.445s8.963-.452 10.756 0c1.792.452 12.1.452 12.548-2.26.448-2.71-1.344-8.132-1.344-8.132s-1.653-13.33-3.516-10.732a35.425 35.425 0 0 1-3.207 3.954l-6.722-2.259z"/>
        <path fill="#A0616A" d="M222 422l1.313 19 12.687-.905L233.812 422z"/>
        <path fill="#2F2E41" d="M225.139 435.402s-1.793-6.836-3.586-6.38l-2.689 5.013s-12.1 11.394-15.685 11.85c0 0-11.652 3.646 0 9.115h13.445s8.963-.912 10.756-.456c1.792.456 12.1.456 12.548-2.279.448-2.734-1.344-7.747-1.344-7.747s-1.653-13.447-3.516-10.825a35.675 35.675 0 0 1-3.207 3.988l-6.722-2.279zM171.237 306L169 309.149v6.298l14.316 53.533L186 380.677s0 44.986 2.684 44.986 14.763 1.35 14.763-1.35-.894-63.88-.894-63.88l12.079 22.943s5.368 40.487 7.157 40.937c1.79.45 14.316 0 15.211-2.7l-2.684-25.641s.447-28.791-7.158-35.09c0 0-1.342-7.647-2.684-10.796-1.342-3.149-3.58-4.948-2.237-7.198 1.342-2.249-1.79-26.991-1.79-26.991s.895-7.648-.894-9.897c-1.79-2.25-48.316 0-48.316 0z"/>
        <circle cx="200" cy="191" r="14" fill="#A0616A"/>
        <path fill="#A0616A" d="M208.294 198.818l-.902 9.091 3.608 3.182L188 222c5.666-9.756 7.344-18.64 4.51-25l15.784 1.818z"/>
        <path fill="#D0CDE1" d="M192.69 212.49s-3.576 7.182.893 5.386L207.44 208s15.197 5.836 20.561 12.57l-4.47 47.584-3.575 33.668s2.234 4.04 1.787 4.489c-.447.449-.894-.449-.447.898.447 1.346 1.788 0 .447 1.346-1.34 1.347-2.681 0-1.34 1.347 1.34 1.347 0 1.796 0 1.796s-1.788-10.774-17.432-2.694c-15.644 8.08-22.349 10.325-33.97.45l13.41-51.176 1.082-19.302a79.815 79.815 0 0 1 3.402-18.995c1.025-3.333 2.81-6.607 5.795-8.39v.898z"/>
        <path fill="#A0616A" d="M216.163 251.688l6.795 16.578-15.854 33.156s-3.624 4.033-1.36 8.961a59.012 59.012 0 0 0 4.077 7.617s4.077-1.792 4.077-9.41L237 275.884 235.188 249l-19.025 2.688z"/>
        <path fill="#D0CDE1" d="M216.218 222.276c-3.83 4.422-5.165 10.532-3.537 16.188A1038.194 1038.194 0 0 0 217.545 256s10.612-8.094 19.455-3.148c0 0-1.326-29.227-8.843-31.925-7.517-2.697-11.939 1.35-11.939 1.35z"/>
        <path fill="#2F2E41" d="M210.527 179.475s-4.239-9.3-12.362-7.153c-8.123 2.145-12.714 5.364-13.068 8.583a46.505 46.505 0 0 0 .177 8.048s.883-6.617 6.534-5.186c5.65 1.43 14.48.357 14.48.357L207.701 197s2.41-2.6 4.175-1.17c1.766 1.43 4.302-13.494-1.35-16.355zM441.383 75.055L435.32 69l-3.031 3.027-11.116 2.018s9.095 11.605 9.6 16.65l6.568 28.255s-32.84 38.85-22.23 44.905c10.61 6.054 38.397 17.659 39.408 15.136a31.713 31.713 0 0 0 1.515-6.055S454.52 180 458.055 180c3.537 0 33.85-1.514 32.84-9.082-1.01-7.568-13.136-41.877-13.136-41.877l6.063-27.246s16.673 0 17.178-4.036l-6.063-5.045 2.021-10.091-10.61-.505-1.515 2.018-8.084-3.027-3.031 1.514-20.21-3.028-2.526-2.522h-8.084l-1.515-2.018z"/>
        <path fill="#FF388A" d="M381.035 290.983c3.43 12.979 15.173 21.017 15.173 21.017s6.185-13.005 2.757-25.983C395.535 273.038 383.792 265 383.792 265s-6.185 13.005-2.757 25.983z"/>
        <path fill="#3F3D56" d="M386.155 288.178C395.819 297.568 397 312 397 312s-14.49-.79-24.155-10.178C363.181 292.432 362 278 362 278s14.49.79 24.155 10.178z"/>
        <path fill="#2F2E41" d="M465.868 29.18c-2.342-3.213-6.016-5.128-9.937-5.18h-.472C446.37 24 439 32.401 439 42.765h3.046l.492-3.824.721 3.824h18.065l1.514-3.236-.379 3.236h3.554c1.659 8.411-.724 16.823-7.148 25.235h6.054l3.027-6.47-.757 6.47h11.54L481 53.118c0-11.146-6.34-20.597-15.132-23.939z"/>
        <path fill="#FF388A" d="M486 187v-22.862c0-19.957 8.715-39.096 24.266-51.623 11.623-9.363 28.458-16.364 52.575-14.8L553.653 61 633 115.238l-77.676 54.239 7.934-34.63S514.815 125.67 486 187zM147 335v-22.862c0-19.957-8.715-39.096-24.266-51.623-11.623-9.363-28.458-16.364-52.575-14.8L79.347 209 0 263.238l77.676 54.239-7.935-34.63S118.185 273.67 147 335z"/>
        <path fill="#FFB8B8" d="M494.128 92l-.498 30.9 2.488 36.47s3.982 20.768-4.977 17.223c-8.958-3.546-5.474-19.249-5.474-19.249l-.498-36.978v-27.86l8.959-.506z"/>
        <path fill="#2F2E41" d="M484 91.094V102a51.136 51.136 0 0 0 10.904-1.543L495 90l-11 1.094z"/>
    </g>
</svg>
