<svg xmlns="http://www.w3.org/2000/svg" width="194" height="292" viewBox="0 0 194 292">
    <g fill="none" fill-rule="evenodd">
        <path stroke="#535461" stroke-width="2" d="M107.726 291.538c1.01-23.465-.76-47.093-5.483-70.428A508.211 508.211 0 0 0 75.383 132"/>
        <path fill="#FF388A" fill-rule="nonzero" d="M117 43.507C117 66.998 74.506 135 74.506 135S32.01 66.907 32.01 43.507A42.527 42.527 0 0 1 52.963 5.862a42.471 42.471 0 0 1 43.062 0 42.527 42.527 0 0 1 20.952 37.645H117zM186.57 173.38C173.79 193.048 101 227 101 227s1.328-80.065 14.109-99.734c8.077-13.14 22.672-20.884 38.125-20.227 15.453.656 29.334 9.608 36.26 23.386a42.28 42.28 0 0 1-2.924 42.932v.023zM12.869 231.8C29.67 248.104 108 265 108 265s-19.177-77.687-35.98-94.013c-16.813-16.315-43.685-15.927-60.019.866-16.334 16.793-15.946 43.632.868 59.947z"/>
    </g>
</svg>
