<svg xmlns="http://www.w3.org/2000/svg" width="198" height="31" viewBox="0 0 198 31">
    <path fill="#FFF" fill-rule="nonzero" d="M.64 24.987a5.524 5.524 0 0 1 5.536-5.532h17.022c3.072 0 5.6 2.477 5.6 5.532 0 3.087-2.528 5.53-5.6 5.53H6.176a5.504 5.504 0 0 1-5.536-5.53zM0 15.147c0-1.255 1.024-2.284 2.24-2.284h8.127v-2.99c0-1.64 1.28-2.541 2.912-2.541 1.568 0 2.848.9 2.848 2.54v2.991h11.039a2.266 2.266 0 0 1 2.272 2.283c0 1.19-.992 2.22-2.272 2.22H2.24c-1.216 0-2.24-1.03-2.24-2.22zm21.822-5.918c0-.193.032-.482.096-.707.288-.997.48-2.412.48-3.055H3.2c-1.248 0-2.24-.965-2.24-2.251C.96 1.962 1.952.965 3.2.965h22.75c1.216 0 2.208.997 2.208 2.219 0 1.768-.16 4.47-.768 6.72-.384 1.416-1.6 1.994-2.784 1.994-1.664 0-2.784-1.222-2.784-2.669zM6.335 24.987c0 .546.384 1.093 1.088 1.093h14.623c.704 0 1.056-.547 1.056-1.093 0-.547-.352-1.094-1.056-1.094H7.423c-.704 0-1.088.547-1.088 1.094zM32.797 8.072c0-3.827 2.944-6.946 6.912-6.946h14.015c3.967 0 6.911 3.119 6.911 6.946 0 3.826-2.944 6.946-6.911 6.946H39.709c-3.968 0-6.912-3.12-6.912-6.946zm-.8 12.059c0-1.319 1.12-2.412 2.432-2.412h24.542c1.376 0 2.464 1.093 2.464 2.412 0 1.286-1.088 2.412-2.464 2.412h-2.88v5.402c0 1.64-1.247 2.894-2.88 2.894-1.631 0-2.88-1.254-2.88-2.894v-5.402h-6.367c-.256 2.315-.8 4.405-1.823 6.528C41.533 30.325 40.637 31 39.42 31c-1.984 0-3.52-1.93-2.784-3.73.672-1.672 1.12-3.12 1.408-4.727h-3.616c-1.312 0-2.432-1.126-2.432-2.412zm6.496-12.06c0 1.383.96 2.187 2.336 2.187h11.775c1.376 0 2.336-.804 2.336-2.186 0-1.383-.96-2.187-2.336-2.187H40.829c-1.376 0-2.336.804-2.336 2.187zM73.274 26.82c0-.933.352-1.737.96-2.252 4.224-3.505 6.56-8.457 6.56-16.882V3.537a2.875 2.875 0 0 1 2.88-2.894c1.6 0 2.879 1.286 2.879 2.894v4.149c0 8.425 2.304 13.249 6.527 16.754.608.514.992 1.286.992 2.219 0 1.543-1.12 2.733-2.72 2.733-.735 0-1.44-.225-1.92-.643-2.623-2.283-4.543-4.792-5.759-8.458-1.216 3.763-3.136 6.336-5.76 8.619-.48.418-1.183.643-1.92.643-1.599 0-2.719-1.19-2.719-2.733zm22.974 1.125V3.215c0-1.64 1.28-2.893 2.88-2.893 1.6 0 2.88 1.254 2.88 2.894v24.729c0 1.672-1.28 2.894-2.88 2.894-1.6 0-2.88-1.222-2.88-2.894zm9.663-12.799c0-1.286.672-2.09 1.536-2.444 2.848-1.157 5.28-3.505 5.344-7.01h-4.48c-1.248 0-2.24-.933-2.24-2.251 0-1.383.992-2.315 2.24-2.315h14.72c1.375 0 2.303.932 2.303 2.315 0 1.318-.928 2.25-2.304 2.25h-4.48c.064 3.345 2.464 5.532 5.344 6.69.864.353 1.536 1.157 1.536 2.444 0 1.447-1.056 2.572-2.56 2.572-.416 0-.864-.096-1.248-.257-2.24-.933-4.48-2.38-5.92-4.791-1.44 2.572-3.711 4.18-5.983 5.113-.384.16-.832.257-1.248.257-1.504 0-2.56-1.126-2.56-2.573zm27.198 7.557v5.242a2.875 2.875 0 0 1-2.88 2.894c-1.6 0-2.88-1.286-2.88-2.894v-3.473h-17.822a2.232 2.232 0 0 1-2.24-2.251c0-1.254.992-2.251 2.24-2.251h20.862c1.408 0 2.72 1.061 2.72 2.733zm-5.76-6.431V3.216c0-1.64 1.28-2.894 2.88-2.894 1.6 0 2.88 1.254 2.88 2.894V7.17h1.728c1.248 0 2.24.997 2.24 2.251a2.232 2.232 0 0 1-2.24 2.251h-1.728v4.599c0 1.672-1.28 2.894-2.88 2.894-1.6 0-2.88-1.222-2.88-2.894zm11.04 5.917v-4.663c0-4.76 3.967-7.557 8.703-7.557 4.736 0 8.735 2.798 8.735 7.557v4.663c0 4.76-4 7.525-8.735 7.525-4.736 0-8.703-2.766-8.703-7.525zm20.958 5.756V3.215c0-1.64 1.28-2.893 2.88-2.893 1.6 0 2.88 1.254 2.88 2.894v8.875h1.568c1.311 0 2.4 1.061 2.4 2.412a2.403 2.403 0 0 1-2.4 2.412h-1.568v11.03c0 1.672-1.28 2.894-2.88 2.894-1.6 0-2.88-1.222-2.88-2.894zM137.59 6.11c0-1.319.96-2.412 2.368-2.412h4.255v-.965c0-1.64 1.28-2.733 2.88-2.733 1.6 0 2.88 1.093 2.88 2.733v.965h4.256c1.343 0 2.4 1.061 2.4 2.412a2.382 2.382 0 0 1-2.4 2.412h-14.271c-1.408 0-2.368-1.061-2.368-2.412zm6.495 11.48v4.534c0 1.705 1.312 2.83 3.04 2.83s3.008-1.125 3.008-2.83V17.59c0-1.704-1.28-2.862-3.008-2.862s-3.04 1.158-3.04 2.862zm48.156 10.355V3.215c0-1.64 1.28-2.893 2.88-2.893 1.6 0 2.88 1.254 2.88 2.894v24.729c0 1.672-1.28 2.894-2.88 2.894-1.6 0-2.88-1.222-2.88-2.894zm-22.654-1.383c0-1.061.576-1.994 1.472-2.444 8-3.987 11.487-10.162 11.487-17.686h-10.11a2.368 2.368 0 0 1-2.369-2.38c0-1.383 1.056-2.444 2.368-2.444h13.631c1.248 0 2.24.997 2.24 2.25v1.77c0 8.521-3.104 17.911-14.719 23.314-.416.193-.928.29-1.408.29-1.472 0-2.592-1.223-2.592-2.67z"/>
</svg>
