<svg xmlns="http://www.w3.org/2000/svg" width="51" height="40" viewBox="0 0 51 40">
    <path fill="#FFF" fill-rule="nonzero" d="M25.5 15c-4.233 0-7.65 3.35-7.65 7.5S21.267 30 25.5 30c4.233 0 7.65-3.35 7.65-7.5S29.733 15 25.5 15zm20.4-7.5h-6.12c-.867 0-1.734-.65-1.989-1.4L36.21 1.45C35.904.65 35.037 0 34.17 0H16.83c-.816 0-1.734.65-1.989 1.4L13.26 6.05c-.306.8-1.224 1.45-2.04 1.45H5.1c-2.805 0-5.1 2.25-5.1 5V35c0 2.75 2.295 5 5.1 5h40.8c2.805 0 5.1-2.25 5.1-5V12.5c0-2.75-2.295-5-5.1-5zM25.5 35c-7.038 0-12.75-5.6-12.75-12.5S18.462 10 25.5 10s12.75 5.6 12.75 12.5S32.538 35 25.5 35zm18.615-19c-.969 0-1.785-.8-1.785-1.75s.816-1.75 1.785-1.75 1.785.8 1.785 1.75S45.084 16 44.115 16z"/>
</svg>
