<svg xmlns="http://www.w3.org/2000/svg" width="60" height="42" viewBox="0 0 60 42">
    <defs>
        <linearGradient id="a" x1="0%" y1="25.5%" y2="74.5%">
            <stop offset="0%" stop-color="#FF388A"/>
            <stop offset="100%" stop-color="#0091FF"/>
        </linearGradient>
    </defs>
    <path fill="url(#a)" fill-rule="nonzero" d="M54.714.002c-2.174.038-5.046.7-8.524 1.96a72.982 72.982 0 0 0-6.393 2.69c-.533.253-1.075.51-1.612.776l-.537.266.52.304a16.588 16.588 0 0 1 7.864 10.904 127.082 127.082 0 0 1-12.56 9.276 128.222 128.222 0 0 1-13.61 7.741l-.174.085c-.426.198-.853.421-1.279.603-.426.181-.963.421-1.428.65-1.5.661-2.95 1.264-4.296 1.736-3.661 1.324-5.899 1.687-7.135 1.75-1.487.08-2.097-.22-2.208-.392-.11-.173-.136-.544.162-1.362.435-1.147 1.611-3.255 4.804-6.59.793-.844 1.67-1.687 2.613-2.572a19.712 19.712 0 0 0 1.82 3.407c.614.926 1.306 1.8 2.067 2.614l.157.168.213-.092a82.44 82.44 0 0 0 2.558-1.151l.426-.203-.341-.324a16.553 16.553 0 0 1-4.965-9.791 16.395 16.395 0 0 1-.103-3.234c.176-2.521.921-4.971 2.182-7.168 2.657-4.61 7.377-7.688 12.706-8.286a17.143 17.143 0 0 1 7.523.873l.136.046.124-.063a78.22 78.22 0 0 1 3.094-1.54l.61-.286-.606-.3A20.284 20.284 0 0 0 18.48 3.677a19.885 19.885 0 0 0-8.638 12.606 19.667 19.667 0 0 0 .004 8.092 67.427 67.427 0 0 0-3.92 3.794c-2.558 2.67-4.301 5.014-5.196 6.974-.93 2.037-.972 3.715-.124 4.993.848 1.277 2.425 1.901 4.689 1.863 2.173-.038 5.042-.7 8.524-1.96a73.125 73.125 0 0 0 5.818-2.412 20.311 20.311 0 0 0 20.947-.713c6.296-4.1 9.75-11.336 8.947-18.75a72.015 72.015 0 0 0 4.548-4.331c2.557-2.67 4.296-5.014 5.191-6.974.93-2.037.972-3.715.124-4.993-.848-1.277-2.425-1.901-4.68-1.863zM43.901 6.364a70.753 70.753 0 0 1 3.41-1.353c3.657-1.324 5.894-1.687 7.13-1.75 1.488-.08 2.097.22 2.208.392.11.173.153.843-.511 2.159-.55 1.096-1.77 2.99-4.446 5.79a62.813 62.813 0 0 1-2.928 2.862 19.845 19.845 0 0 0-2.434-5.098 20.211 20.211 0 0 0-2.429-3.002zm-5.115 27.83A16.936 16.936 0 0 1 23.4 35.792c4.065-2.1 8.018-4.406 11.845-6.907 3.83-2.48 7.53-5.154 11.081-8.011-.174 5.392-2.986 10.364-7.54 13.332v-.012z" opacity=".155"/>
</svg>
