<svg xmlns="http://www.w3.org/2000/svg" width="32" height="32" viewBox="0 0 32 32">
    <path fill="#1183FA" fill-rule="nonzero" d="M31.513 29.147l-7.888-7.921c2.028-2.328 3.14-5.257 3.14-8.306C26.765 5.796 20.76 0 13.382 0S0 5.796 0 12.92s6.003 12.92 13.382 12.92c2.77 0 5.41-.807 7.667-2.338l7.949 7.981c.332.333.779.517 1.258.517a1.77 1.77 0 0 0 1.21-.47 1.646 1.646 0 0 0 .047-2.383zM13.383 3.37c5.453 0 9.89 4.284 9.89 9.55 0 5.266-4.437 9.55-9.89 9.55-5.455 0-9.892-4.284-9.892-9.55 0-5.266 4.437-9.55 9.891-9.55z"/>
</svg>
