<svg xmlns="http://www.w3.org/2000/svg" width="75" height="32" viewBox="0 0 75 32">
    <path fill="#328FFF" fill-rule="nonzero" d="M2.352 20.924C1.042 20.924 0 19.868 0 18.54c0-1.33 1.042-2.386 2.352-2.386H7.83v-2.896H5.813c-2.957 0-5.175-2.863-5.175-6.203 0-3.34 2.218-6.202 5.175-6.202h9.98c2.956 0 5.174 2.863 5.174 6.202 0 3.34-2.218 6.203-5.174 6.203H13.81v2.658a50.793 50.793 0 0 0 5.477-.614c1.31-.204 2.554.682 2.722 2.011.168 1.363-.773 2.59-1.983 2.76-5.78.818-11.39.852-17.674.852zM22.85 22.05V3.067C22.849 1.33 24.193 0 25.873 0s3.024 1.33 3.024 3.067v6.816h1.814c1.31 0 2.353 1.056 2.353 2.385 0 1.33-1.042 2.386-2.353 2.386h-1.814v7.395c0 1.772-1.344 3.067-3.024 3.067s-3.024-1.295-3.024-3.067zM2.083 29.103v-4.362c0-1.704 1.344-2.726 3.024-2.726s3.024 1.022 3.024 2.726v2.488h19.422c1.31 0 2.352 1.056 2.352 2.385 0 1.33-1.042 2.386-2.352 2.386H4.939c-1.478 0-2.856-1.125-2.856-2.897zm4.47-22.049c0 .92.537 1.568 1.276 1.568h5.947c.74 0 1.277-.648 1.277-1.568s-.537-1.567-1.277-1.567H7.83c-.74 0-1.277.647-1.277 1.567zm34.272 8.52h20.497c1.31 0 2.352 1.056 2.352 2.386 0 1.329-1.041 2.385-2.352 2.385H37.096c-1.277 0-2.319-1.056-2.319-2.351v-7.43c0-1.295 1.042-2.147 2.319-2.147H57.29V5.964H36.995a2.383 2.383 0 0 1-2.386-2.386 2.383 2.383 0 0 1 2.386-2.385H61.02c1.277 0 2.318 1.056 2.318 2.351v7.157a2.325 2.325 0 0 1-2.352 2.351h-20.16v2.522zm-7.224 13.052c0-1.397 1.176-2.522 2.554-2.522h3.73v-2.18c0-1.739 1.31-2.557 3.024-2.557 1.713 0 3.024.818 3.024 2.556v2.181h6.25v-2.18c0-1.739 1.31-2.557 3.024-2.557 1.713 0 3.024.818 3.024 2.556v2.181h3.696c1.445 0 2.587 1.125 2.587 2.522 0 1.363-1.142 2.522-2.587 2.522H36.155c-1.378 0-2.554-1.159-2.554-2.522zm34.61-1.431c0-1.874 1.545-3.442 3.393-3.442 1.848 0 3.394 1.568 3.394 3.442s-1.546 3.442-3.394 3.442-3.394-1.568-3.394-3.442zM74.997 4.02l-.706 14.79c-.067 1.773-1.344 2.556-2.688 2.556s-2.62-.783-2.688-2.555l-.706-14.79C68.143 2.248 69.588.783 71.604.783s3.461 1.465 3.394 3.237z"/>
</svg>
