<svg xmlns="http://www.w3.org/2000/svg" width="413" height="318" viewBox="0 0 413 318">
    <defs>
        <linearGradient id="a" x1="-.019%" x2="99.989%" y1="49.96%" y2="49.96%">
            <stop offset="0%" stop-color="#FFF" stop-opacity="0"/>
            <stop offset="95%" stop-color="#FFF"/>
        </linearGradient>
        <linearGradient id="b" x1=".078%" x2="100.051%" y1="50.017%" y2="50.017%">
            <stop offset="0%" stop-color="#E5C6D6"/>
            <stop offset="42%" stop-color="#EAD4D0"/>
            <stop offset="100%" stop-color="#F0E9CB"/>
        </linearGradient>
        <linearGradient id="c" x1=".008%" x2="99.939%" y1="49.984%" y2="49.984%">
            <stop offset="0%" stop-color="#010101" stop-opacity="0"/>
            <stop offset="95%" stop-color="#010101"/>
        </linearGradient>
        <linearGradient id="d" x1="72.642%" x2="21.231%" y1="79.574%" y2="18.451%">
            <stop offset="0%" stop-color="#010101" stop-opacity="0"/>
            <stop offset="95%" stop-color="#010101"/>
        </linearGradient>
        <linearGradient id="e" x1="49.458%" x2="50.631%" y1="91.134%" y2="-32.293%">
            <stop offset="0%" stop-color="#FFF" stop-opacity="0"/>
            <stop offset="95%" stop-color="#FFF"/>
        </linearGradient>
        <linearGradient id="f" x1=".011%" x2="100.069%" y1="50.008%" y2="50.008%">
            <stop offset="0%" stop-color="#FFF" stop-opacity="0"/>
            <stop offset="95%" stop-color="#FFF"/>
        </linearGradient>
        <linearGradient id="g" x1="-.015%" x2="99.924%" y1="50.015%" y2="50.015%">
            <stop offset="0%" stop-color="#010101" stop-opacity="0"/>
            <stop offset="95%" stop-color="#010101"/>
        </linearGradient>
        <linearGradient id="h" x1=".114%" x2="99.751%" y1="50.056%" y2="50.056%">
            <stop offset="0%" stop-color="#E5C6D6"/>
            <stop offset="42%" stop-color="#EAD4D0"/>
            <stop offset="100%" stop-color="#F0E9CB"/>
        </linearGradient>
        <linearGradient id="i" x1="48.379%" x2="53.834%" y1="43.598%" y2="65.287%">
            <stop offset="0%" stop-color="#010101" stop-opacity="0"/>
            <stop offset="95%" stop-color="#010101"/>
        </linearGradient>
        <linearGradient id="j" x1="49.824%" x2="50.441%" y1="45.351%" y2="66.667%">
            <stop offset="0%" stop-color="#010101" stop-opacity="0"/>
            <stop offset="95%" stop-color="#010101"/>
        </linearGradient>
        <linearGradient id="k" x1="49.865%" x2="50.555%" y1="47.128%" y2="61.339%">
            <stop offset="0%" stop-color="#010101" stop-opacity="0"/>
            <stop offset="95%" stop-color="#010101"/>
        </linearGradient>
        <linearGradient id="l" x1="50.829%" x2="52.632%" y1="53.252%" y2="73.515%">
            <stop offset="0%" stop-color="#010101" stop-opacity="0"/>
            <stop offset="95%" stop-color="#010101"/>
        </linearGradient>
        <linearGradient id="m" x1="31.879%" x2="49.659%" y1="132.163%" y2="52.979%">
            <stop offset="0%" stop-color="#FFF" stop-opacity="0"/>
            <stop offset="95%" stop-color="#FFF"/>
        </linearGradient>
        <linearGradient id="n" x1="-.028%" y1="49.963%" y2="49.963%">
            <stop offset="0%" stop-color="#010101" stop-opacity="0"/>
            <stop offset="95%" stop-color="#010101"/>
        </linearGradient>
        <linearGradient id="o" x1="80.311%" x2="37.709%" y1="68.414%" y2="36.723%">
            <stop offset="0%" stop-color="#FFF" stop-opacity="0"/>
            <stop offset="95%" stop-color="#FFF"/>
        </linearGradient>
        <linearGradient id="p" x1="-.186%" x2="100.017%" y1="50.024%" y2="50.024%">
            <stop offset="0%" stop-color="#E5C6D6"/>
            <stop offset="42%" stop-color="#EAD4D0"/>
            <stop offset="100%" stop-color="#F0E9CB"/>
        </linearGradient>
        <linearGradient id="q" x1="62.332%" x2="2.822%" y1="69.136%" y2="-2.657%">
            <stop offset="0%" stop-color="#FFF" stop-opacity="0"/>
            <stop offset="95%" stop-color="#FFF"/>
        </linearGradient>
        <linearGradient id="r" x1="60.205%" x2="-36.88%" y1="72.119%" y2="-114.848%">
            <stop offset="0%" stop-color="#010101" stop-opacity="0"/>
            <stop offset="95%" stop-color="#010101"/>
        </linearGradient>
        <linearGradient id="s" x1="59.593%" x2="45.551%" y1="64.123%" y2="22.673%">
            <stop offset="0%" stop-color="#FFF" stop-opacity="0"/>
            <stop offset="95%" stop-color="#FFF"/>
        </linearGradient>
        <linearGradient id="t" x1="49.775%" x2="57.533%" y1="46.511%" y2="82.813%">
            <stop offset="0%" stop-color="#010101" stop-opacity="0"/>
            <stop offset="95%" stop-color="#010101"/>
        </linearGradient>
        <linearGradient id="u" x1="42.382%" x2="65.942%" y1="-8.206%" y2="148.935%">
            <stop offset="0%" stop-color="#010101" stop-opacity="0"/>
            <stop offset="95%" stop-color="#010101"/>
        </linearGradient>
        <linearGradient id="v" x1="40.881%" x2="65.409%" y1="-3.459%" y2="141.195%">
            <stop offset="0%" stop-color="#010101" stop-opacity="0"/>
            <stop offset="95%" stop-color="#010101"/>
        </linearGradient>
        <linearGradient id="w" x1="66.704%" x2="-141.413%" y1="19.392%" y2="400.316%">
            <stop offset="0%" stop-color="#010101" stop-opacity="0"/>
            <stop offset="95%" stop-color="#010101"/>
        </linearGradient>
    </defs>
    <g fill="none" fill-rule="nonzero">
        <path fill="#328FFF" d="M411.814 216.52a128.66 128.66 0 0 1-2.43 14.018c-1.867 7.94-4.749 15.582-9.275 22.25a42.53 42.53 0 0 1-1.491 2.067c-13.464 17.806-37.045 24.234-59.167 26.847-36.347 4.303-73.112 1.341-109.707 1.843-58.722.77-117.761 10.433-175.912 2.066-15.089-2.142-32.513-7.673-42.238-20.292a35.42 35.42 0 0 1-3.777-6.129C3.47 250.252 1.203 239.324.36 228.04a170.063 170.063 0 0 1 2.761-43.472c5.174-26.44 18.796-51.539 39.654-68.57 17.024-13.916 38.53-22.429 52.724-39.212 14.6-17.254 20.065-41.653 37.413-56.122 8.925-7.464 20.185-11.526 31.427-14.514C185.565.498 207.94-1.892 229.592 1.7c21.652 3.592 42.663 13.547 57.478 29.803 20.459 22.384 28.685 55.57 53.796 72.575 11.712 7.921 25.981 11.38 37.864 19.072 14.6 9.46 24.712 24.92 29.758 41.583 5.047 16.663 5.39 34.482 3.326 51.787z" opacity=".24"/>
        <path fill="#328FFF" d="M117.876 212.494c.129.44.238.993-.109 1.294a1.31 1.31 0 0 1-.99.183 89.78 89.78 0 0 1-11.193-1.778 1.6 1.6 0 0 1-1.206-.571 1.527 1.527 0 0 1-.33-1.27 124.57 124.57 0 0 1 .714-17.24c.353-3.173.81-8.055 3.598-10.216 3.4-2.626 4.466 1.093 4.787 3.814 1.022 8.758 2.198 17.315 4.73 25.784z"/>
        <path fill="url(#a)" d="M117.876 212.494c.129.44.238.993-.109 1.294a1.31 1.31 0 0 1-.99.183 89.78 89.78 0 0 1-11.193-1.778 1.6 1.6 0 0 1-1.206-.571 1.527 1.527 0 0 1-.33-1.27 124.57 124.57 0 0 1 .714-17.24c.353-3.173.81-8.055 3.598-10.216 3.4-2.626 4.466 1.093 4.787 3.814 1.022 8.758 2.198 17.315 4.73 25.784z"/>
        <path fill="url(#b)" d="M251.425 97.873c-1.506-1.326-3.167-2.715-5.152-2.862-1.867-.133-3.702.924-4.978 2.358a19.3 19.3 0 0 0-2.868 4.983 14.521 14.521 0 0 0-1.363 4.085c-.274 2.141.41 4.282.585 6.436.093 1.198.037 2.447.529 3.537a4.522 4.522 0 0 0 3.061 2.415c1.31.28 2.668.223 3.951-.166a2.424 2.424 0 0 0 1.245-.637c.771-.86.23-2.256.522-3.384a3.56 3.56 0 0 1 2.048-2.109c.935-.36 1.838-.802 2.7-1.32a4.515 4.515 0 0 0 1.761-2.758c.212-1.084.044-2.282.566-3.25.212-.395.53-.727.747-1.122a1.3 1.3 0 0 0 .1-1.274 2 2 0 0 0-.623-.555 5.107 5.107 0 0 1-1.978-3.058 2.01 2.01 0 0 0-.853-1.32z"/>
        <path fill="#606161" d="M244 108.46a8.175 8.175 0 0 1-2.685-2.04 2.292 2.292 0 0 0-.098 3.22c.17.139.31.307.412.496.045.132.067.27.066.41l.124 4.175c0 .546-.164 1.297-.746 1.279a1.162 1.162 0 0 1-.583-.255 6.359 6.359 0 0 0-3.105-.993 3.533 3.533 0 0 1-1.087-.142 2.603 2.603 0 0 1-.831-.62l-1.834-1.806a2.108 2.108 0 0 1-.576-.776 2.02 2.02 0 0 1 0-.95l.654-4.28a8.901 8.901 0 0 1 .623-2.513c.33-.64.773-1.22 1.31-1.72 1.257-1.24 3.025-2.152 4.813-1.904 1.689.243 2.944 1.608 2.967 3.226a17.09 17.09 0 0 0 .576 5.194z"/>
        <path fill="#328FFF" d="M238.11 89.011c-2.728-.05-5.72 0-7.813 1.767-2.414 2.055-2.754 5.806-1.81 8.855.728 2.348 2.105 4.638 1.79 7.081-.226 1.768-1.326 3.535-.735 5.212.516 1.468 2.232 2.227 3.772 2.048a7.553 7.553 0 0 0 4.011-2.143c3.388-3.056 5.758-7.394 9.813-9.461 2.974-1.525 9.732-4.262 5.513-8.53-3.778-3.814-9.511-4.74-14.54-4.829z"/>
        <path fill="url(#c)" d="M238.11 89.011c-2.728-.05-5.72 0-7.813 1.767-2.414 2.055-2.754 5.806-1.81 8.855.728 2.348 2.105 4.638 1.79 7.081-.226 1.768-1.326 3.535-.735 5.212.516 1.468 2.232 2.227 3.772 2.048a7.553 7.553 0 0 0 4.011-2.143c3.388-3.056 5.758-7.394 9.813-9.461 2.974-1.525 9.732-4.262 5.513-8.53-3.778-3.814-9.511-4.74-14.54-4.829z"/>
        <path fill="#606161" d="M271.042 152.392a4.032 4.032 0 0 1 2.403.533 3.32 3.32 0 0 1 1.06 1.744c.838 2.702.454 5.613 0 8.404-.677 4.16-.082 10.859-1.022 14.962-.307 1.339-2.096.21-3.195 1.072-1.534 1.224-3.79.787-5.656 1.402l-.639-14.721c0-.463-.096-1.015-.511-1.218a1.236 1.236 0 0 0-.697-.07 41.821 41.821 0 0 0-7.815 1.414c-1.847.52-3.726 1.206-5.08 2.538-2.461 2.46-2.557 6.342-2.806 9.774A51.259 51.259 0 0 1 240.252 200a37.977 37.977 0 0 1-8.25-.926c-.045-1.364.722-2.6 1.214-3.875.856-2.201.895-4.618.812-6.977-.18-5.24-.92-10.466-.8-15.711.122-5.246 1.17-10.643 4.212-14.93 3.196-4.485 8.877-7.466 14.424-6.344 6.352 1.3 12.717 1.072 19.178 1.155z"/>
        <path fill="url(#d)" d="M271.04 152.392a4.035 4.035 0 0 1 2.404.533c.53.456.9 1.067 1.061 1.744.838 2.702.454 5.613 0 8.404-.677 4.16-.198 11.67-1.144 15.774-.307 1.338-1.976-.602-3.056.26-1.534 1.224-3.791.787-5.658 1.402l-.64-14.721c0-.463-.095-1.015-.511-1.218a1.237 1.237 0 0 0-.697-.07 41.857 41.857 0 0 0-7.82 1.414c-1.847.52-3.726 1.206-5.082 2.538-2.461 2.46-2.557 6.342-2.807 9.774A51.242 51.242 0 0 1 240.256 200a38.01 38.01 0 0 1-8.254-.926c-.045-1.364.722-2.6 1.215-3.875.856-2.201.895-4.618.812-6.977-.18-5.24-.921-10.466-.8-15.711.122-5.246 1.17-10.643 4.214-14.93 3.196-4.485 8.88-7.466 14.43-6.344 6.336 1.3 12.703 1.072 19.167 1.155z"/>
        <path fill="#328FFF" d="M274.2 177.018c.292-.042.59-.011.869.089.539.248.704.92.806 1.504a113.746 113.746 0 0 1 1.535 16.796 34.267 34.267 0 0 1 3.585-2.92 4.156 4.156 0 0 1 1.828-.863 2.963 2.963 0 0 1 2.38.958 8.131 8.131 0 0 1 1.427 2.234 2.33 2.33 0 0 1 .336 1.657 2.298 2.298 0 0 1-.71.958A53.367 53.367 0 0 1 268.837 208c-.686-2.85-.077-5.846-.299-8.766-.33-4.367-2.443-8.309-3.984-12.327-.698-1.834-1.555-3.948-1.555-5.947 0-1.758 1.091-2.387 2.671-2.749a51.19 51.19 0 0 1 8.528-1.193zM242.35 197.306a45.625 45.625 0 0 1 .448 16.908c-.243 1.506-.424 3.37.798 4.236.892.641 2.089.365 3.168.462 2.638.343 4.514 2.81 4.202 5.524a1.692 1.692 0 0 1-.492 1.07 1.834 1.834 0 0 1-1.08.334 248.18 248.18 0 0 1-18.947 1.16c-.58 0-1.247-.032-1.56-.532a1.719 1.719 0 0 1-.174-.852c-.274-7.647-1.247-16.023-.324-23.612.817-6.755 9.215-4.724 13.96-4.698z"/>
        <path fill="url(#e)" d="M274.2 177.018c.292-.042.59-.011.869.089.539.248.704.92.806 1.504a113.746 113.746 0 0 1 1.535 16.796 34.267 34.267 0 0 1 3.585-2.92 4.156 4.156 0 0 1 1.828-.863 2.963 2.963 0 0 1 2.38.958 8.131 8.131 0 0 1 1.427 2.234 2.33 2.33 0 0 1 .336 1.657 2.298 2.298 0 0 1-.71.958A53.367 53.367 0 0 1 268.837 208c-.686-2.85-.077-5.846-.299-8.766-.33-4.367-2.443-8.309-3.984-12.327-.698-1.834-1.555-3.948-1.555-5.947 0-1.758 1.091-2.387 2.671-2.749a51.19 51.19 0 0 1 8.528-1.193z"/>
        <path fill="url(#f)" d="M242.35 197.306a45.625 45.625 0 0 1 .448 16.908c-.243 1.506-.424 3.37.798 4.236.892.641 2.089.365 3.168.462 2.638.343 4.514 2.81 4.202 5.524a1.692 1.692 0 0 1-.492 1.07 1.834 1.834 0 0 1-1.08.334 248.18 248.18 0 0 1-18.947 1.16c-.58 0-1.247-.032-1.56-.532a1.719 1.719 0 0 1-.174-.852c-.274-7.647-1.247-16.023-.324-23.612.817-6.755 9.215-4.724 13.96-4.698z"/>
        <path fill="#328FFF" d="M255.165 113.715c2.23-1.755 3.759-4.197 4.977-6.715a27.777 27.777 0 0 1 6.22 4.086c.604.367.813 1.12.48 1.73-1.99 5.698-7.319 9.699-13.536 10.164-2.126.118-4.42-.263-5.955-1.687-1.335-1.25-2.19-4.579-.058-5.466.926-.387 2.941.137 4.101-.181a10.828 10.828 0 0 0 3.771-1.93z"/>
        <path fill="url(#g)" d="M255.165 113.715c2.23-1.755 3.759-4.197 4.977-6.715a27.777 27.777 0 0 1 6.22 4.086c.604.367.813 1.12.48 1.73-1.99 5.698-7.319 9.699-13.536 10.164-2.126.118-4.42-.263-5.955-1.687-1.335-1.25-2.19-4.579-.058-5.466.926-.387 2.941.137 4.101-.181a10.828 10.828 0 0 0 3.771-1.93z"/>
        <path fill="url(#h)" d="M262.51 100.796c.042-1.264.127-2.661.989-3.56.862-.897 2.143-.992 3.333-1.055l2.739-.152a2.408 2.408 0 0 1 1.481.24c.607.405.74 1.265.832 1.973.134 1.144.255 2.37-.261 3.395a7.337 7.337 0 0 1-1.724 1.897 12.907 12.907 0 0 0-2.532 3.23c-.656 1.208-1.154 2.53-2.113 3.509a2.138 2.138 0 0 1-1.53.727c-.86-.128-1.535-.831-1.658-1.726-.237-1.264.237-2.737.273-4.033.055-1.48.103-2.96.17-4.445z"/>
        <path fill="#328FFF" d="M253 97h8v3h-8z"/>
        <path fill="url(#i)" d="M253 97h8v3h-8z"/>
        <path fill="#328FFF" d="M261 95h14v6h-14zM275 94h38v10h-38z"/>
        <path fill="url(#j)" d="M261 95h14v6h-14z"/>
        <path fill="url(#k)" d="M275 94h38v10h-38"/>
        <path fill="#328FFF" d="M317 158.14c-6.69-1.161-12.473 5.08-14.908 11.43-2.435 6.349-3.069 13.46-6.785 19.143-3.601 5.511-9.594 8.89-15.351 12.064-9.512 5.264-19.22 10.591-29.803 13.086-8.345 1.969-17.026 1.55-25.58 2.121-101.811 6.788-139.946-6.35-170.573-26.242a320.307 320.307 0 0 0 16.163 40.636c3.881 8.083 8.212 16.16 14.699 22.35 7.387 7.055 17.089 11.169 26.873 14.109 37.964 11.397 78.629 6.876 118.006 2.248 12.048-1.41 24.223-2.864 35.51-7.258 22.301-8.667 39.441-28.884 45.712-51.996 2.017-7.441 2.987-15.124 3.944-22.775 1.174-9.556.895-19.379 2.093-28.915z"/>
        <path fill="url(#l)" d="M317 158.141c-1.195 9.525-.921 19.35-2.116 28.9-.197 1.645-.42 3.283-.635 4.921a136.37 136.37 0 0 1-3.317 17.876 80.184 80.184 0 0 1-18.477 33.187 73.65 73.65 0 0 1-27.322 18.803c-11.323 4.4-23.51 5.842-35.583 7.258-39.439 4.63-80.2 9.15-118.253-2.26-9.804-2.935-19.507-7.043-26.922-14.105a40.211 40.211 0 0 1-2.637-2.781c-5.083-5.715-8.762-12.637-12.072-19.578-4.327-9.024-6.144-12.757-8.26-18.701-.966-2.712-2.014-5.893-3.406-10.218 30.709 19.87 125.294 21.686 147.139 21.712 8.59 0 36.605-7.29 44.967-9.278 10.63-2.49 20.332-7.81 29.863-13.081 5.75-3.176 11.768-6.567 15.377-12.066 3.71-5.67 4.359-12.79 6.792-19.127 2.434-6.337 8.171-12.63 14.862-11.462z"/>
        <path fill="#328FFF" d="M85.784 175.755c2.434-5.156 5.804-10.184 10.874-12.73 3.629-1.827 7.827-2.209 11.88-1.954 3.47.223 7.308 1.14 9.204 4.08 1.372 2.139 1.486 5.035 3.275 6.836 1.41 1.42 3.692 1.954 4.622 3.73 1.131 2.164-.563 4.907-2.77 5.913-2.206 1.006-4.74.853-7.162 1-1.037.063-2.175.248-2.82 1.062a3.98 3.98 0 0 0-.632 2.362l-1.189 23.054a4.985 4.985 0 0 1-.683 2.75c-1.163 1.572-3.559 1.222-5.437.707l-18.79-5.143c-1.953-.535-3.976-1.108-5.512-2.432-3.294-2.845-.727-9.013-.089-12.73a64.165 64.165 0 0 1 5.229-16.505z"/>
        <path fill="#328FFF" d="M88.585 177.035c-1.375 4.585-2.678 9.8-.143 13.901.205.397.53.724.931.939a2.16 2.16 0 0 0 1.264.057 6.944 6.944 0 0 0 4.274-2.992 13.036 13.036 0 0 0 1.864-4.888c.834-4.164.651-8.479 1.629-12.598.501-2.18 1.511-4.491 3.596-5.448-2.35-.086-4.626.809-6.248 2.456-1.59 1.682-2.723 3.71-4.066 5.575-1.068 1.467-2.586 1.266-3.1 2.998zM76.108 185.824c-.348-2.492-.734-5.164-2.467-6.984a6.247 6.247 0 0 0-6.59-1.454 6.475 6.475 0 0 0-4.033 5.427c-.04.305-.012.616.084.91.257.64 1.01.948 1.578 1.377 1.765 1.32 1.72 3.896 2.203 6.036.541 2.377 1.888 4.484 3.221 6.51 1.578 2.344 3.517 4.843 6.313 5.285 4.136.64 2.204-3.338 1.63-5.337-1.037-3.767-1.404-7.906-1.939-11.77z"/>
        <path fill="url(#m)" d="M85.784 175.755c2.434-5.156 5.804-10.184 10.874-12.73 3.629-1.827 7.827-2.209 11.88-1.954 3.47.223 7.308 1.14 9.204 4.08 1.372 2.139 1.486 5.035 3.275 6.836 1.41 1.42 3.692 1.954 4.622 3.73 1.131 2.164-.563 4.907-2.77 5.913-2.206 1.006-4.74.853-7.162 1-1.037.063-2.175.248-2.82 1.062a3.98 3.98 0 0 0-.632 2.362l-1.189 23.054a4.985 4.985 0 0 1-.683 2.75c-1.163 1.572-3.559 1.222-5.437.707l-18.79-5.143c-1.953-.535-3.976-1.108-5.512-2.432-3.294-2.845-.727-9.013-.089-12.73a64.165 64.165 0 0 1 5.229-16.505z"/>
        <path fill="url(#n)" d="M88.579 179.031c-1.368 4.593-2.671 9.81-.137 13.911.202.397.528.724.932.933.405.145.847.164 1.264.056a6.93 6.93 0 0 0 4.274-2.992 13.275 13.275 0 0 0 1.863-4.883c.834-4.165.651-8.487 1.622-12.6.508-2.18 1.512-4.493 3.603-5.45-2.352-.086-4.628.812-6.248 2.463-1.59 1.676-2.723 3.705-4.072 5.576-1.062 1.461-2.58 1.253-3.101 2.986z"/>
        <path fill="#FFF" d="M87.737 176.576c-1.92 4.482-3.845 9.609-1.976 14.11.146.428.413.8.766 1.072.367.2.785.28 1.198.226a6.64 6.64 0 0 0 4.478-2.48 13.85 13.85 0 0 0 2.421-4.72c1.348-4.12 1.756-8.53 3.218-12.605.771-2.15 2.038-4.365 4.158-5.063a7.731 7.731 0 0 0-6.272 1.673c-1.738 1.498-3.086 3.41-4.616 5.133-1.223 1.363-2.654.956-3.375 2.654z"/>
        <path fill="url(#o)" d="M76.108 185.824c-.348-2.492-.734-5.164-2.467-6.984a6.247 6.247 0 0 0-6.59-1.454 6.475 6.475 0 0 0-4.033 5.427c-.04.305-.012.616.084.91.257.64 1.01.948 1.578 1.377 1.765 1.32 1.72 3.896 2.203 6.036.541 2.377 1.888 4.484 3.221 6.51 1.578 2.344 3.517 4.843 6.313 5.285 4.136.64 2.204-3.338 1.63-5.337-1.037-3.767-1.404-7.906-1.939-11.77z"/>
        <path fill="url(#p)" d="M277.534 96.633c.501-.129 1.014.21 1.54.21 1.194 0 1.618-1.519 2.536-2.256a3.53 3.53 0 0 1 2.682-.51c.93.135 1.835.436 2.772.485.368-.016.735.032 1.085.141.924.388.924 1.623.783 2.576-.27 1.751-.578 3.595-1.752 4.96-1.457 1.702-4.03 2.378-5.134 4.302a3.947 3.947 0 0 1-.706 1.064c-.62.419-1.418.511-2.124.245-2.034-.547-4.492-2.698-4.19-4.917.185-1.229 1.167-2.219 1.482-3.405.186-.793-.058-2.612 1.026-2.895z"/>
        <path fill="#328FFF" d="M273.7 102c.815 1.679 2.216 2.984 3.585 4.25l4.715 4.352c-3.787 3.383-6.943 7.5-10.875 10.725-5.049 4.124-11.228 6.576-17.287 8.964.064 4.89 0 9.603.045 14.493.099 2.358-.01 4.72-.329 7.057-.536 3.263-1.893 6.335-2.833 9.502a41.95 41.95 0 0 0-1.806 11.82c-5.936.512-11.888.79-17.855.837-3.509 0-7.308-.133-10.06-2.325 3.995-7.323 8.072-14.88 9.044-23.172 1.004-8.552-1.37-17.32.272-25.77.423-2.204 1.224-4.497 3.03-5.815 2.694-1.97 6.412-1.045 9.675-.386a46.115 46.115 0 0 0 11.991.785 9.972 9.972 0 0 0 3.831-.83c1.496-.753 2.57-2.122 3.642-3.408 3.396-4.048 6.955-8.032 11.215-11.079z"/>
        <path fill="url(#q)" d="M273.7 102c.815 1.679 2.216 2.984 3.585 4.25l4.715 4.352c-3.787 3.383-6.943 7.5-10.875 10.725-5.049 4.124-11.228 6.576-17.287 8.964.064 4.89 0 9.603.045 14.493.099 2.358-.01 4.72-.329 7.057-.536 3.263-1.893 6.335-2.833 9.502a41.95 41.95 0 0 0-1.806 11.82c-5.936.512-11.888.79-17.855.837-3.509 0-7.308-.133-10.06-2.325 3.995-7.323 8.072-14.88 9.044-23.172 1.004-8.552-1.37-17.32.272-25.77.423-2.204 1.224-4.497 3.03-5.815 2.694-1.97 6.412-1.045 9.675-.386a46.115 46.115 0 0 0 11.991.785 9.972 9.972 0 0 0 3.831-.83c1.496-.753 2.57-2.122 3.642-3.408 3.396-4.048 6.955-8.032 11.215-11.079z"/>
        <path fill="url(#r)" d="M229.259 134c3.226-.227 6.026-2.22 7.187-5.117.531-1.4.648-2.966 1.53-4.198.803-1.131 2.112-1.815 3.37-2.456a32.224 32.224 0 0 1 4.633-2.058 13.299 13.299 0 0 0 2.651-.982.7.7 0 0 0 .37-.398.616.616 0 0 0-.318-.56 5.023 5.023 0 0 0-2.236-.746c-2.307-.373-4.686-.746-6.96-.236a16.756 16.756 0 0 0-5.289 2.537 10.989 10.989 0 0 0-3.526 3.109c-1.088 1.722-1.134 3.805-1.536 5.726-.123.579-.278 5.398.124 5.379z"/>
        <path fill="#328FFF" d="M220.208 117.593c-.933.318-1.43 1.306-1.113 2.216a31.692 31.692 0 0 0 4.162 11.504c.095.26.294.472.55.589.258.117.553.13.82.036a10.082 10.082 0 0 0 5.569-2.847c1.235-1.248 2.045-2.865 3.08-4.3a19.044 19.044 0 0 1 7.532-5.987c2.939-1.405 2.997-3.552-.277-4.925-5.917-2.472-15.178.755-20.323 3.714z"/>
        <path fill="url(#s)" d="M220.208 117.593c-.933.318-1.43 1.306-1.113 2.216a31.692 31.692 0 0 0 4.162 11.504c.095.26.294.472.55.589.258.117.553.13.82.036a10.082 10.082 0 0 0 5.569-2.847c1.235-1.248 2.045-2.865 3.08-4.3a19.044 19.044 0 0 1 7.532-5.987c2.939-1.405 2.997-3.552-.277-4.925-5.917-2.472-15.178.755-20.323 3.714z"/>
        <path fill="url(#t)" d="M314 192a137.504 137.504 0 0 1-3.3 17.926 80.545 80.545 0 0 1-18.415 33.279c-9.626 6.367-25.249 12.94-49.282 14.315-43.924 2.547-122.051 2.789-160.738-7.38-5.066-5.732-8.733-12.673-12.032-19.633-4.313-9.049-6.124-12.793-8.233-18.754 10.867 6.763 49.332 26.465 122.273 20.626 87.627-7.005 107.195-11.596 123.958-35.813L314 192z"/>
        <path fill="#328FFF" d="M373.486 291.35c-14.032 9.806-31.336 16.189-48.19 19.44-54.84 10.573-111.507-1.318-167.261 2.485-23.46 1.585-46.921 6.003-70.382 4.368-11.667-.818-29.472-6.973-45.02-16.83-14.272-9.09-26.687-21.279-30.714-35.427a42.863 42.863 0 0 1-.919-4.145s27.963-14.104 56.274-16.658c10.278-.945 20.588-.349 29.624 2.979 1.617.596 3.253 1.191 4.895 1.813 24.83 9.21 51.131 19.212 76.285 11.764 10.55-3.125 20.018-9.184 30.321-13.108a81.014 81.014 0 0 1 62.006 2.085c5.288 2.434 10.532 5.515 16.34 5.838 10.855.596 19.568-8.24 29.053-13.508a44.577 44.577 0 0 1 3.253-1.635c10.855-5.04 22.624-5.705 34.595-3.898 15.719 2.383 31.76 9.083 46.338 15.986.545.273-13.011 29.095-26.498 38.45z" opacity=".53"/>
        <path fill="#328FFF" d="M399.738 252.664c.546.272-13.05 29.059-26.527 38.403-25.754 6.103-52.688 5.287-79.254 5.534-82.522.867-165.254 12.813-247.37 4.431-1.51-.152-3.053-.323-4.596-.494-14.295-9.097-26.724-21.272-30.755-35.402a35.248 35.248 0 0 1-3.777-6.104C3.11 250.132.844 239.248 0 228.011a52.122 52.122 0 0 1 26.255-1.564c14.371 2.925 27.074 11.826 40.398 17.93 7.306 3.348 14.79 5.824 22.852 6.026 3.94.05 7.873-.375 11.712-1.266 9.223-2.007 18.174-6.103 27.15-9.3 36.316-12.94 75.946-11.776 114.503-10.44 24.515.842 49.475 1.785 72.594 9.997l3.257 1.19c6.912 2.532 14.047 5.128 21.182 3.64 5.2-1.063 9.42-4.039 13.452-7.534 4.373-3.842 8.474-8.23 13.248-11.484 9.521-6.42 29.562-9.813 38.588-.317a24.2 24.2 0 0 1 3.809 5.603c-1.854 7.914-4.736 15.524-9.262 22.172z" opacity=".53"/>
        <path fill="#328FFF" d="M122.85 172.091a2.283 2.283 0 0 0-1.063-.051c-.358.078-.651.37-.765.761-.131.645.354 1.162.788 1.555l1.01.93c.265.278.573.497.91.645a.87.87 0 0 0 .993-.232c.139-.196.224-.434.245-.684.117-.8-.093-1.616-.57-2.22-.497-.597-1.268-.785-1.937-.471"/>
        <path fill="url(#u)" d="M122.85 172.091a2.283 2.283 0 0 0-1.063-.051c-.358.078-.651.37-.765.761-.131.645.354 1.162.788 1.555l1.01.93c.265.278.573.497.91.645a.87.87 0 0 0 .993-.232c.139-.196.224-.434.245-.684.117-.8-.093-1.616-.57-2.22-.497-.597-1.268-.785-1.937-.471"/>
        <circle cx="115" cy="171" r="1" fill="url(#v)"/>
        <path fill="url(#w)" d="M96.002 196c-.023 1.346.13 2.69.459 4 .337 1.182.937 2.294 1.348 3.47.411 1.175.573 2.445.95 3.652.547 1.731.735 3.393 4.241 4.878-6.202-1.46-7.031-1.125-6.93-5.188.074-3.608.013-7.204-.068-10.812z"/>
    </g>
</svg>
