<svg xmlns="http://www.w3.org/2000/svg" width="44" height="31" viewBox="0 0 44 31">
    <defs>
        <linearGradient id="a" x1="0%" y1="25.181%" y2="74.819%">
            <stop offset="0%" stop-color="#FF388A"/>
            <stop offset="100%" stop-color="#0091FF"/>
        </linearGradient>
        <linearGradient id="b" x1="25.788%" x2="82.48%" y1="22.462%" y2="86.945%">
            <stop offset="0%" stop-color="#FF388A"/>
            <stop offset="100%" stop-color="#0091FF"/>
        </linearGradient>
    </defs>
    <g fill="none" fill-rule="nonzero">
        <path fill="url(#a)" d="M40.124.001c-1.594.028-3.701.517-6.252 1.447a53.33 53.33 0 0 0-4.688 1.986c-.39.187-.788.377-1.181.573l-.394.196.381.224a12.24 12.24 0 0 1 5.767 8.048 93.232 93.232 0 0 1-9.211 6.847 93.87 93.87 0 0 1-9.98 5.714l-.128.062c-.313.146-.625.311-.938.445-.313.134-.706.311-1.047.48-1.1.488-2.163.933-3.15 1.282-2.685.977-4.326 1.244-5.233 1.291-1.09.06-1.538-.162-1.619-.29-.081-.127-.1-.4.119-1.005.319-.846 1.181-2.402 3.522-4.864a44.156 44.156 0 0 1 1.916-1.898c.362.88.809 1.721 1.335 2.514.451.684.958 1.33 1.516 1.93l.116.124.156-.068c.606-.265 1.25-.55 1.875-.85l.313-.15-.25-.239c-2-1.93-3.283-4.477-3.642-7.226a12.18 12.18 0 0 1-.075-2.387 12.41 12.41 0 0 1 1.6-5.291A12.327 12.327 0 0 1 20.27 2.78c1.864-.201 3.75.019 5.517.645l.1.034.09-.047a57.213 57.213 0 0 1 2.27-1.136l.446-.211-.443-.221a14.795 14.795 0 0 0-14.697.87A14.679 14.679 0 0 0 7.22 17.99a49.593 49.593 0 0 0-2.876 2.8c-1.875 1.97-3.153 3.701-3.81 5.148-.681 1.504-.712 2.742-.09 3.685.621.943 1.778 1.404 3.438 1.376 1.594-.028 3.697-.517 6.25-1.447a53.431 53.431 0 0 0 4.267-1.78 14.813 14.813 0 0 0 15.361-.526 14.673 14.673 0 0 0 6.562-13.84 52.96 52.96 0 0 0 3.335-3.197c1.875-1.97 3.15-3.7 3.807-5.147.681-1.504.712-2.742.09-3.685C42.934.434 41.777-.027 40.124 0zm-7.93 4.697c.872-.374 1.713-.71 2.5-1 2.682-.977 4.323-1.244 5.23-1.291 1.09-.06 1.537.162 1.619.29.08.127.112.622-.375 1.593-.404.809-1.298 2.206-3.26 4.273a46.204 46.204 0 0 1-2.148 2.113 14.676 14.676 0 0 0-1.785-3.763 14.9 14.9 0 0 0-1.781-2.215zm-3.75 20.54a12.35 12.35 0 0 1-11.284 1.18 98.452 98.452 0 0 0 8.686-5.098 97.366 97.366 0 0 0 8.126-5.913 12.241 12.241 0 0 1-5.529 9.84v-.009z"/>
        <path fill="url(#b)" d="M34 18a54.702 54.702 0 0 0 2.975-1.667 12.63 12.63 0 0 0-.07-2.333c-.96.762-1.54 1.21-2.63 1.97A11.16 11.16 0 0 1 34 18z" opacity=".33"/>
    </g>
</svg>
