<svg xmlns="http://www.w3.org/2000/svg" width="80" height="80" viewBox="0 0 80 80">
    <g fill="none" fill-rule="evenodd" transform="translate(6.84 5)">
        <circle cx="30" cy="30" r="30" fill="#FFF"/>
        <g fill-rule="nonzero">
            <path fill="#4285F4" d="M37.363 39.014L33.44 35.73a7.297 7.297 0 0 0 2.496-3.388h-6.53v-5.12h11.647c.259 1.274.324 2.576.193 3.867a12.554 12.554 0 0 1-3.882 7.925z"/>
            <path fill="#34A853" d="M18.9 35.238l4.06-3.14a7.113 7.113 0 0 0 6.714 4.744c1.545 0 2.976-.49 4.141-1.326l3.965 3.182a12.074 12.074 0 0 1-8.107 3.108c-4.7 0-8.772-2.67-10.773-6.568z"/>
            <path fill="#FBBC05" d="M18.908 23.766l4.17 3.109a6.904 6.904 0 0 0-.02 4.9l-4.194 3.074a11.727 11.727 0 0 1-1.364-5.5c0-2.015.508-3.914 1.408-5.583z"/>
            <path fill="#EA4335" d="M23.04 27.22l-4.116-3.154a12.278 12.278 0 0 1 10.88-6.566c3.4 0 6.477 1.377 8.7 3.602l-3.564 3.575a7.21 7.21 0 0 0-5.135-2.138 7.218 7.218 0 0 0-6.765 4.68z"/>
        </g>
    </g>
</svg>
