<?xml version="1.0" encoding="utf-8"?>
<!-- Generator: Adobe Illustrator 22.1.0, SVG Export Plug-In . SVG Version: 6.00 Build 0)  -->
<svg version="1.1" id="레이어_1" xmlns="http://www.w3.org/2000/svg" xmlns:xlink="http://www.w3.org/1999/xlink" x="0px"
	 y="0px" viewBox="0 0 428 103" style="enable-background:new 0 0 428 103;" xml:space="preserve">
<style type="text/css">
	.st0{filter:url(#Adobe_OpacityMaskFilter);}
	.st1{fill:#FFFFFF;}
	.st2{mask:url(#mask-2_1_);}
	.st3{filter:url(#Adobe_OpacityMaskFilter_1_);}
	.st4{mask:url(#mask-4_1_);}
	.st5{filter:url(#Adobe_OpacityMaskFilter_2_);}
	.st6{mask:url(#mask-6_1_);}
	.st7{filter:url(#Adobe_OpacityMaskFilter_3_);}
	.st8{mask:url(#mask-8_1_);}
	.st9{filter:url(#Adobe_OpacityMaskFilter_4_);}
	.st10{mask:url(#mask-10_1_);}
	.st11{filter:url(#Adobe_OpacityMaskFilter_5_);}
	.st12{mask:url(#mask-12_1_);}
	.st13{filter:url(#Adobe_OpacityMaskFilter_6_);}
	.st14{mask:url(#mask-14_1_);}
	.st15{filter:url(#Adobe_OpacityMaskFilter_7_);}
	.st16{mask:url(#mask-16_1_);}
	.st17{filter:url(#Adobe_OpacityMaskFilter_8_);}
	.st18{mask:url(#mask-18_1_);}
</style>
<title>Group 28</title>
<desc>Created with Sketch.</desc>
<g id="Page-1">
	<g id="Artboard" transform="translate(-451.000000, -429.000000)">
		<g id="Group-28" transform="translate(451.000000, 429.000000)">
			<g id="Group-3" transform="translate(0.000000, 79.060000)">
				<g id="Clip-2">
				</g>
				<defs>
					<filter id="Adobe_OpacityMaskFilter" filterUnits="userSpaceOnUse" x="-18.1" y="-18.2" width="139.8" height="56.7">
						<feColorMatrix  type="matrix" values="1 0 0 0 0  0 1 0 0 0  0 0 1 0 0  0 0 0 1 0"/>
					</filter>
				</defs>
				<mask maskUnits="userSpaceOnUse" x="-18.1" y="-18.2" width="139.8" height="56.7" id="mask-2_1_">
					<g class="st0">
						<path id="path-1_1_" class="st1" d="M51.4,7C33.5,7.1,6.7,1.9,1.6,0.9l0,0C1.2,0.8,0.8,1.1,0.8,1.6l0,0v11.8
							c0,0.3,0.2,0.6,0.6,0.7l0,0c4.2,0.8,30.4,5.7,49.6,5.5l0,0c25.8-0.3,51.6-5.6,49-5.6l0,0c1.9,0,2.9-2.2,2.9-6.6l0,0
							c0-4.5-0.9-6.7-2.9-6.7l0,0C100,0.7,70.7,7,51.4,7L51.4,7z"/>
					</g>
				</mask>
				<polygon id="Fill-1" class="st2" points="-18.1,38.5 121.7,38.5 121.7,-18.2 -18.1,-18.2 				"/>
			</g>
			<g id="Group-6" transform="translate(325.000000, 79.060000)">
				<g id="Clip-5">
				</g>
				<defs>
					<filter id="Adobe_OpacityMaskFilter_1_" filterUnits="userSpaceOnUse" x="-18.1" y="-18.2" width="139.8" height="56.7">
						<feColorMatrix  type="matrix" values="1 0 0 0 0  0 1 0 0 0  0 0 1 0 0  0 0 0 1 0"/>
					</filter>
				</defs>
				<mask maskUnits="userSpaceOnUse" x="-18.1" y="-18.2" width="139.8" height="56.7" id="mask-4_1_">
					<g class="st3">
						<path id="path-3_1_" class="st1" d="M51.4,7C33.5,7.1,6.7,1.9,1.6,0.9l0,0C1.2,0.8,0.8,1.1,0.8,1.6l0,0v11.8
							c0,0.3,0.2,0.6,0.6,0.7l0,0c4.2,0.8,30.4,5.6,49.6,5.5l0,0c19.7-0.1,51.6-5.6,49-5.6l0,0c1.9,0,2.9-2.2,2.9-6.6l0,0
							c0-4.5-1-6.7-2.9-6.7l0,0C99.9,0.7,70.6,7,51.4,7L51.4,7z"/>
					</g>
				</mask>
				<polygon id="Fill-4" class="st4" points="-18.1,38.5 121.7,38.5 121.7,-18.2 -18.1,-18.2 				"/>
			</g>
			<g id="Group-9" transform="translate(12.000000, 4.060000)">
				<g id="Clip-8">
				</g>
				<defs>
					<filter id="Adobe_OpacityMaskFilter_2_" filterUnits="userSpaceOnUse" x="-18.8" y="-18.8" width="120.9" height="94.5">
						<feColorMatrix  type="matrix" values="1 0 0 0 0  0 1 0 0 0  0 0 1 0 0  0 0 0 1 0"/>
					</filter>
				</defs>
				<mask maskUnits="userSpaceOnUse" x="-18.8" y="-18.8" width="120.9" height="94.5" id="mask-6_1_">
					<g class="st5">
						<path id="path-5_1_" class="st1" d="M31.7,0.3c-0.5,0-0.9,0.6-0.6,1.1l0,0l3.3,6.1c0.1,0.1,0.1,0.2,0.1,0.4l0,0
							c0,2.5-0.2,4.9-0.6,7.3l0,0c-0.5,2.9-1.7,5.6-3.3,8l0,0c-2.5,4.1-6.3,8.1-11.5,11.9l0,0c-5.7,4.2-11.8,8-18.1,11.3l0,0
							c-0.7,0.3-1.1,1.1-0.9,1.9l0,0c0.5,1.5,1.2,2.9,2.2,4.1l0,0c0.8,1.2,1.7,2.5,2.7,3.6l0,0c0.5,0.8,1.5,1,2.4,0.6l0,0
							c3.3-1.5,6.4-3.2,9.5-5.1l0,0c3.4-2.1,6.7-4.4,9.9-6.9l0,0c3.1-2.4,6.1-5.1,8.9-8l0,0c2.2-2.2,4.1-4.7,5.8-7.4l0,0
							c0.3-0.5,0.9-0.5,1.2,0l0,0c1.6,2.8,3.6,5.3,5.8,7.5l0,0c2.8,2.8,5.7,5.3,8.9,7.7l0,0c3.1,2.3,6.4,4.4,9.9,6.3l0,0
							c3.1,1.7,6.4,3.2,9.7,4.6l0,0c0.7,0.5,1.7,0.3,2.2-0.4l0,0c0.9-1.1,1.6-2.4,2.3-3.7l0,0c0.8-1.3,1.3-2.6,1.7-4l0,0
							c0.2-0.8-0.3-1.6-1.1-1.9l0,0c-2.6-1.2-5.3-2.6-8.2-4.3l0,0c-2.9-1.7-5.6-3.5-8.3-5.4l0,0c-2.6-1.9-5-3.9-7.4-6.1l0,0
							c-2.1-1.9-4-4.1-5.6-6.5l0,0c-1.6-2.3-2.8-4.9-3.4-7.7l0,0c0,0,0,0,0-0.1l0,0c-0.4-2.4-0.6-4.7-0.6-7.1l0,0
							c0-0.1,0-0.2-0.1-0.3l0,0l-3.7-7.2c-0.1-0.2-0.4-0.4-0.6-0.4l0,0H31.7z"/>
					</g>
				</mask>
				<polygon id="Fill-7" class="st6" points="-18.8,75.7 102.1,75.7 102.1,-18.8 -18.8,-18.8 				"/>
			</g>
			<g id="Group-12" transform="translate(106.000000, 7.060000)">
				<g id="Clip-11">
				</g>
				<defs>
					<filter id="Adobe_OpacityMaskFilter_3_" filterUnits="userSpaceOnUse" x="-18.3" y="-18" width="94.5" height="105.8">
						<feColorMatrix  type="matrix" values="1 0 0 0 0  0 1 0 0 0  0 0 1 0 0  0 0 0 1 0"/>
					</filter>
				</defs>
				<mask maskUnits="userSpaceOnUse" x="-18.3" y="-18" width="94.5" height="105.8" id="mask-8_1_">
					<g class="st7">
						<path id="path-7_1_" class="st1" d="M1.3,0.9c-0.4,0-0.7,0.3-0.7,0.7l0,0v10.5c0,0.4,0.3,0.7,0.7,0.7l0,0H9
							c0.4,0,0.7,0.3,0.7,0.7l0,0v42.7C9.7,56.6,9.3,57,9,57l0,0H1.3c-0.4,0-0.7,0.3-0.7,0.7l0,0v10.5c0,0.4,0.3,0.7,0.7,0.7l0,0
							h53.1c1.9,0,2.9-2,2.9-5.9l0,0c0-3.9-1-6-2.9-6l0,0h-7.2c-0.4,0-0.7-0.3-0.7-0.7l0,0V13.5c0-0.4,0.3-0.7,0.7-0.7l0,0H52
							c1.9,0,2.9-2,2.9-5.9l0,0c0-3.9-1-6-2.9-6l0,0H1.3z M23.1,56.2V13.5c0-0.4,0.3-0.7,0.7-0.7l0,0h8.5c0.4,0,0.7,0.3,0.7,0.7l0,0
							v42.7c0,0.4-0.3,0.7-0.7,0.7l0,0h-8.5C23.4,57,23.1,56.6,23.1,56.2L23.1,56.2z"/>
					</g>
				</mask>
				<polygon id="Fill-10" class="st8" points="-18.3,87.8 76.2,87.8 76.2,-18 -18.3,-18 				"/>
			</g>
			<g id="Group-15" transform="translate(159.000000, 0.060000)">
				<g id="Clip-14">
				</g>
				<defs>
					<filter id="Adobe_OpacityMaskFilter_4_" filterUnits="userSpaceOnUse" x="-18.4" y="-18.6" width="64.2" height="136">
						<feColorMatrix  type="matrix" values="1 0 0 0 0  0 1 0 0 0  0 0 1 0 0  0 0 0 1 0"/>
					</filter>
				</defs>
				<mask maskUnits="userSpaceOnUse" x="-18.4" y="-18.6" width="64.2" height="136" id="mask-10_1_">
					<g class="st9">
						<path id="path-9_1_" class="st1" d="M11.9,4.1l1.2,1.5c0.1,0.1,0.2,0.3,0.2,0.4l0,0v27.7c0,0.4-0.3,0.7-0.7,0.7l0,0H1.2
							c-0.4,0-0.7,0.3-0.7,0.7l0,0v10.1c0,0.4,0.3,0.7,0.7,0.7l0,0h11.3c0.4,0,0.7,0.3,0.7,0.7l0,0v49.2c0,1.8,2.3,2.7,6.9,2.7l0,0
							c1.8,0.1,3.6-0.1,5.2-0.7l0,0c0.9-0.3,1.5-1.1,1.6-2l0,0V1c0-0.4-0.3-0.7-0.7-0.7l0,0l-12.6,0C11.7,0.3,10.6,2.6,11.9,4.1
							L11.9,4.1z"/>
					</g>
				</mask>
				<polygon id="Fill-13" class="st10" points="-18.4,117.5 45.8,117.5 45.8,-18.6 -18.4,-18.6 				"/>
			</g>
			<g id="Group-18" transform="translate(192.000000, 0.060000)">
				<g id="Clip-17">
				</g>
				<defs>
					<filter id="Adobe_OpacityMaskFilter_5_" filterUnits="userSpaceOnUse" x="-17.4" y="-18.6" width="49.1" height="139.8">
						<feColorMatrix  type="matrix" values="1 0 0 0 0  0 1 0 0 0  0 0 1 0 0  0 0 0 1 0"/>
					</filter>
				</defs>
				<mask maskUnits="userSpaceOnUse" x="-17.4" y="-18.6" width="49.1" height="139.8" id="mask-12_1_">
					<g class="st11">
						<path id="path-11_1_" class="st1" d="M3.5,0.3c-2,0-3.2,2.2-2.1,3.9l0,0c0.1,0.1,0.1,0.3,0.1,0.4l0,0l0,95
							c0,1.9,1.9,2.8,5.7,2.8l0,0c3.8,0,5.7-0.9,5.7-2.8l0,0V1c0-0.4-0.3-0.7-0.7-0.7l0,0L3.5,0.3C3.5,0.3,3.5,0.3,3.5,0.3L3.5,0.3z
							"/>
					</g>
				</mask>
				<polygon id="Fill-16" class="st12" points="-17.4,121.2 31.7,121.2 31.7,-18.6 -17.4,-18.6 				"/>
			</g>
			<g id="Group-21" transform="translate(297.000000, 0.060000)">
				<g id="Clip-20">
				</g>
				<defs>
					<filter id="Adobe_OpacityMaskFilter_6_" filterUnits="userSpaceOnUse" x="-16.6" y="-18.6" width="49.1" height="139.8">
						<feColorMatrix  type="matrix" values="1 0 0 0 0  0 1 0 0 0  0 0 1 0 0  0 0 0 1 0"/>
					</filter>
				</defs>
				<mask maskUnits="userSpaceOnUse" x="-16.6" y="-18.6" width="49.1" height="139.8" id="mask-14_1_">
					<g class="st13">
						<path id="path-13_1_" class="st1" d="M0.8,3.9l1.3,1.6c0.1,0.1,0.2,0.3,0.2,0.5l0,0v93.7c0,1,0.5,1.7,1.6,2.1l0,0
							c1.3,0.5,2.7,0.7,4.1,0.7l0,0c1.4,0,2.7-0.2,4-0.7l0,0c1.1-0.4,1.6-1.1,1.6-2.1l0,0V1c0-0.4-0.3-0.7-0.7-0.7l0,0l-10.5,0
							C0.6,0.3-0.4,2.5,0.8,3.9L0.8,3.9z"/>
					</g>
				</mask>
				<polygon id="Fill-19" class="st14" points="-16.6,121.2 32.5,121.2 32.5,-18.6 -16.6,-18.6 				"/>
			</g>
			<g id="Group-24" transform="translate(333.000000, 4.060000)">
				<g id="Clip-23">
				</g>
				<defs>
					<filter id="Adobe_OpacityMaskFilter_7_" filterUnits="userSpaceOnUse" x="-12.6" y="-18.8" width="120.9" height="94.5">
						<feColorMatrix  type="matrix" values="1 0 0 0 0  0 1 0 0 0  0 0 1 0 0  0 0 0 1 0"/>
					</filter>
				</defs>
				<mask maskUnits="userSpaceOnUse" x="-12.6" y="-18.8" width="120.9" height="94.5" id="mask-16_1_">
					<g class="st15">
						<path id="path-15_1_" class="st1" d="M32.8,0.3c-0.5,0-0.9,0.5-0.7,1l0,0l2.5,6.2c0,0.1,0.1,0.2,0.1,0.3l0,0
							c0,2.5-0.2,4.9-0.6,7.4l0,0c-0.5,2.9-1.7,5.6-3.3,8l0,0c-2.5,4.1-6.3,8.1-11.5,11.9l0,0c-5.7,4.2-11.8,8-18.1,11.3l0,0
							c-0.7,0.3-1.1,1.1-0.9,1.9l0,0c0.5,1.5,1.2,2.9,2.2,4.1l0,0c0.8,1.2,1.7,2.4,2.7,3.6l0,0c0.5,0.8,1.5,1,2.4,0.6l0,0
							c3.3-1.5,6.4-3.2,9.5-5.1l0,0c3.4-2.1,6.7-4.4,9.9-6.9l0,0c3.2-2.4,6.1-5.1,8.9-8l0,0c2.2-2.2,4.1-4.7,5.8-7.4l0,0
							c0.3-0.5,0.9-0.5,1.2,0l0,0c1.6,2.8,3.6,5.3,5.8,7.5l0,0c2.8,2.8,5.7,5.3,8.9,7.7l0,0c3.1,2.3,6.4,4.4,9.9,6.3l0,0
							c3.1,1.7,6.4,3.2,9.7,4.6l0,0c0.7,0.4,1.7,0.2,2.2-0.4l0,0c0.9-1.1,1.6-2.4,2.3-3.7l0,0c0.8-1.3,1.4-2.6,1.8-4l0,0
							c0.2-0.8-0.3-1.6-1.1-1.9l0,0c-2.6-1.2-5.3-2.6-8.2-4.3l0,0c-2.9-1.7-5.6-3.5-8.3-5.5l0,0c-2.6-1.9-5-3.9-7.4-6.1l0,0
							c-2.1-1.9-4-4.1-5.6-6.5l0,0c-1.6-2.3-2.8-4.9-3.4-7.7l0,0c0,0,0,0,0-0.1l0,0c-0.4-2.3-0.6-4.7-0.6-7.1l0,0
							c0-0.2,0-0.3-0.1-0.5l0,0l-2.7-7.1c-0.1-0.3-0.4-0.5-0.7-0.5l0,0H32.8z"/>
					</g>
				</mask>
				<polygon id="Fill-22" class="st16" points="-12.6,75.7 108.3,75.7 108.3,-18.8 -12.6,-18.8 				"/>
			</g>
			<g id="Group-27" transform="translate(219.000000, 11.060000)">
				<g id="Clip-26">
				</g>
				<defs>
					<filter id="Adobe_OpacityMaskFilter_8_" filterUnits="userSpaceOnUse" x="-17.9" y="-18.2" width="90.7" height="98.2">
						<feColorMatrix  type="matrix" values="1 0 0 0 0  0 1 0 0 0  0 0 1 0 0  0 0 0 1 0"/>
					</filter>
				</defs>
				<mask maskUnits="userSpaceOnUse" x="-17.9" y="-18.2" width="90.7" height="98.2" id="mask-18_1_">
					<g class="st17">
						<path id="path-17_1_" class="st1" d="M19.3,2.8c-3.6,1.3-6.9,3.4-9.7,6l0,0c-2.8,2.7-4.9,5.9-6.4,9.5l0,0
							c-1.6,4-2.4,8.3-2.3,12.6l0,0c-0.1,4.3,0.7,8.6,2.3,12.6l0,0c1.4,3.6,3.6,6.8,6.4,9.5l0,0c2.8,2.6,6.1,4.7,9.7,6l0,0
							c8,2.8,16.7,2.8,24.7,0l0,0c3.6-1.3,6.9-3.4,9.7-6l0,0l0,0l-9.4-8.4c-0.1,0.1-0.1,0.1-0.2,0.2l0,0c-3.3,3.3-7.5,5-12.6,5l0,0
							c-5.1,0-9.3-1.7-12.6-5l0,0c-3.3-3.3-4.9-7.9-4.9-13.8l0,0c0-5.9,1.7-10.5,4.9-13.8l0,0c3.3-3.3,7.5-5,12.6-5l0,0
							c4.9,0,8.9,1.5,12.1,4.5l0,0c0.3,0.3,0.7,0.3,1,0l0,0l7.5-8.1c0.3-0.3,0.3-0.8-0.1-1l0,0c-2.4-2-5.2-3.6-8.2-4.7l0,0
							c-4-1.4-8.2-2.1-12.4-2.1l0,0C27.5,0.7,23.3,1.4,19.3,2.8L19.3,2.8z"/>
					</g>
				</mask>
				<polygon id="Fill-25" class="st18" points="-17.9,80 72.7,80 72.7,-18.2 -17.9,-18.2 				"/>
			</g>
		</g>
	</g>
</g>
</svg>
