<?xml version="1.0" encoding="UTF-8"?>
<svg width="428px" height="103px" viewBox="0 0 428 103" version="1.1" xmlns="http://www.w3.org/2000/svg" xmlns:xlink="http://www.w3.org/1999/xlink">
    <!-- Generator: Sketch 55.2 (78181) - https://sketchapp.com -->
    <title>Group 28</title>
    <desc>Created with Sketch.</desc>
    <defs>
        <path d="M51.416,7.028 C33.477,7.068 6.7,1.872 1.626,0.854 L1.626,0.854 C1.183,0.765 0.779,1.103 0.779,1.553 L0.779,1.553 L0.779,13.354 C0.779,13.696 1.021,13.989 1.356,14.053 L1.356,14.053 C5.549,14.852 31.709,19.785 50.979,19.574 L50.979,19.574 C76.778,19.29 102.568,13.951 99.952,13.951 L99.952,13.951 C101.855,13.951 102.805,11.764 102.805,7.391 L102.805,7.391 C102.805,2.919 101.855,0.683 99.952,0.683 L99.952,0.683 C99.952,0.683 70.673,7.028 51.416,7.028 L51.416,7.028 Z" id="path-1"></path>
        <path d="M51.389,7.028 C33.452,7.068 6.673,1.872 1.599,0.854 L1.599,0.854 C1.158,0.765 0.752,1.103 0.752,1.553 L0.752,1.553 L0.752,13.354 C0.752,13.696 0.994,13.989 1.329,14.053 L1.329,14.053 C5.524,14.852 31.682,19.679 50.952,19.574 L50.952,19.574 C70.648,19.45 102.541,13.951 99.925,13.951 L99.925,13.951 C101.827,13.951 102.778,11.764 102.778,7.391 L102.778,7.391 C102.778,2.919 101.827,0.683 99.925,0.683 L99.925,0.683 C99.925,0.683 70.648,7.028 51.389,7.028 L51.389,7.028 Z" id="path-3"></path>
        <path d="M31.708,0.29 C31.168,0.29 30.824,0.871 31.084,1.344 L31.084,1.344 L34.414,7.409 C34.472,7.518 34.505,7.642 34.503,7.766 L34.503,7.766 C34.492,10.224 34.294,12.675 33.91,15.1 L33.91,15.1 C33.373,17.977 32.246,20.705 30.603,23.108 L30.603,23.108 C28.094,27.2 24.278,31.176 19.152,35.036 L19.152,35.036 C13.418,39.277 7.375,43.064 1.075,46.366 L1.075,46.366 C0.33,46.67 -0.058,47.509 0.188,48.288 L0.188,48.288 C0.691,49.769 1.426,51.153 2.373,52.389 L2.373,52.389 C3.207,53.638 4.107,54.84 5.066,55.99 L5.066,55.99 C5.607,56.751 6.607,57.005 7.433,56.59 L7.433,56.59 C10.694,55.127 13.852,53.436 16.885,51.533 L16.885,51.533 C20.306,49.421 23.62,47.13 26.81,44.67 L26.81,44.67 C29.957,42.254 32.917,39.594 35.665,36.717 L35.665,36.717 C37.861,34.476 39.804,31.99 41.455,29.31 L41.455,29.31 C41.741,28.847 42.4,28.855 42.677,29.324 L42.677,29.324 C44.292,32.074 46.257,34.598 48.52,36.826 L48.52,36.826 C51.284,39.609 54.247,42.176 57.386,44.507 L57.386,44.507 C60.527,46.843 63.822,48.955 67.249,50.832 L67.249,50.832 C70.383,52.551 73.618,54.073 76.936,55.391 L76.936,55.391 C77.681,55.848 78.644,55.668 79.181,54.973 L79.181,54.973 C80.059,53.824 80.827,52.591 81.471,51.291 L81.471,51.291 C82.227,50.033 82.81,48.673 83.203,47.252 L83.203,47.252 C83.4,46.438 82.926,45.614 82.134,45.386 L82.134,45.386 C79.54,44.202 76.805,42.76 73.928,41.058 L73.928,41.058 C71.053,39.357 68.294,37.542 65.652,35.612 L65.652,35.612 C63.076,33.736 60.612,31.708 58.271,29.534 L58.271,29.534 C56.168,27.622 54.303,25.455 52.712,23.084 L52.712,23.084 C51.082,20.785 49.92,18.177 49.292,15.415 L49.292,15.415 C49.287,15.392 49.283,15.368 49.279,15.344 L49.279,15.344 C48.888,12.984 48.691,10.595 48.697,8.203 L48.697,8.203 C48.697,8.094 48.671,7.985 48.62,7.886 L48.62,7.886 L44.897,0.676 C44.775,0.439 44.529,0.29 44.263,0.29 L44.263,0.29 L31.708,0.29 Z" id="path-5"></path>
        <path d="M1.297,0.884 C0.902,0.884 0.585,1.205 0.585,1.598 L0.585,1.598 L0.585,12.115 C0.585,12.508 0.902,12.829 1.297,12.829 L1.297,12.829 L8.955,12.829 C9.349,12.829 9.669,13.147 9.669,13.541 L9.669,13.541 L9.669,56.248 C9.669,56.641 9.349,56.96 8.955,56.96 L8.955,56.96 L1.297,56.96 C0.902,56.96 0.585,57.279 0.585,57.672 L0.585,57.672 L0.585,68.191 C0.585,68.584 0.902,68.903 1.297,68.903 L1.297,68.903 L54.363,68.903 C56.299,68.903 57.265,66.931 57.265,62.987 L57.265,62.987 C57.265,59.043 56.299,57.034 54.363,56.96 L54.363,56.96 L47.204,56.96 C46.81,56.96 46.49,56.641 46.49,56.248 L46.49,56.248 L46.49,13.548 C46.49,13.155 46.81,12.836 47.204,12.836 L47.204,12.836 L51.969,12.836 C53.908,12.836 54.871,10.869 54.871,6.927 L54.871,6.927 C54.871,2.987 53.908,0.884 51.969,0.884 L51.969,0.884 L1.297,0.884 Z M23.11,56.248 L23.11,13.548 C23.11,13.155 23.431,12.836 23.824,12.836 L23.824,12.836 L32.335,12.836 C32.73,12.836 33.048,13.155 33.048,13.548 L33.048,13.548 L33.048,56.248 C33.048,56.641 32.73,56.96 32.335,56.96 L32.335,56.96 L23.824,56.96 C23.431,56.96 23.11,56.641 23.11,56.248 L23.11,56.248 Z" id="path-7"></path>
        <path d="M11.858,4.064 L13.051,5.526 C13.156,5.654 13.213,5.812 13.213,5.976 L13.213,5.976 L13.213,33.643 C13.213,34.036 12.892,34.355 12.499,34.355 L12.499,34.355 L1.199,34.355 C0.806,34.355 0.487,34.674 0.487,35.067 L0.487,35.067 L0.487,45.167 C0.487,45.561 0.806,45.879 1.199,45.879 L1.199,45.879 L12.499,45.879 C12.892,45.879 13.213,46.198 13.213,46.591 L13.213,46.591 L13.213,95.819 C13.206,97.641 15.514,98.554 20.136,98.554 L20.136,98.554 C21.911,98.654 23.688,98.412 25.36,97.838 L25.36,97.838 C26.277,97.538 26.905,96.735 26.938,95.819 L26.938,95.819 L26.938,1.04 C26.938,0.646 26.62,0.328 26.226,0.326 L26.226,0.326 L13.65,0.299997015 C11.703,0.297 10.629,2.556 11.858,4.064 L11.858,4.064 Z" id="path-9"></path>
        <path d="M3.503,0.302 C1.486,0.302 0.28,2.549 1.396,4.231 L1.396,4.231 C1.473,4.348 1.515,4.486 1.515,4.626 L1.515,4.626 L1.495,99.581 C1.491,101.434 3.379,102.359 7.161,102.35402 L7.161,102.35402 C10.941,102.348 12.831,101.425 12.831,99.581 L12.831,99.581 L12.831,1.038 C12.831,0.646 12.514,0.328 12.121,0.326 L12.121,0.326 L3.51,0.302 C3.508,0.302 3.505,0.302 3.503,0.302 L3.503,0.302 Z" id="path-11"></path>
        <path d="M0.788,3.86 L2.133,5.455 C2.242,5.584 2.301,5.746 2.301,5.914 L2.301,5.914 L2.301,99.575 C2.301,100.54 2.842,101.241 3.93,101.678 L3.93,101.678 C5.252,102.164 6.633,102.39 8.014,102.348 L8.014,102.348 C9.384,102.394 10.748,102.168 12.053,101.678 L12.053,101.678 C13.109,101.241 13.637,100.54 13.637,99.575 L13.637,99.575 L13.637,1.038 C13.637,0.646 13.319,0.328 12.927,0.326 L12.927,0.326 L2.448,0.29999687 C0.606,0.297 -0.4,2.451 0.788,3.86 L0.788,3.86 Z" id="path-13"></path>
        <path d="M32.761,0.29 C32.253,0.29 31.909,0.805 32.102,1.273 L32.102,1.273 L34.64,7.442 C34.678,7.533 34.696,7.629 34.696,7.728 L34.696,7.728 C34.685,10.199 34.489,12.666 34.108,15.108 L34.108,15.108 C33.573,17.984 32.446,20.714 30.802,23.117 L30.802,23.117 C28.291,27.212 24.472,31.189 19.347,35.051 L19.347,35.051 C13.613,39.29 7.57,43.075 1.27,46.376 L1.27,46.376 C0.525,46.681 0.137,47.522 0.383,48.299 L0.383,48.299 C0.878,49.785 1.614,51.173 2.561,52.409 L2.561,52.409 C3.4,53.654 4.309,54.851 5.279,55.99 L5.279,55.99 C5.82,56.751 6.819,57.005 7.646,56.59 L7.646,56.59 C10.907,55.122 14.065,53.432 17.102,51.531 L17.102,51.531 C20.527,49.419 23.839,47.128 27.029,44.665 L27.029,44.665 C30.181,42.247 33.143,39.587 35.896,36.708 L35.896,36.708 C38.079,34.47 40.011,31.992 41.659,29.319 L41.659,29.319 C41.943,28.857 42.6,28.866 42.877,29.334 L42.877,29.334 C44.49,32.087 46.455,34.61 48.718,36.841 L48.718,36.841 C51.484,39.621 54.449,42.189 57.584,44.525 L57.584,44.525 C60.73,46.861 64.031,48.975 67.46,50.854 L67.46,50.854 C70.596,52.575 73.831,54.099 77.151,55.415 L77.151,55.415 C77.881,55.837 78.806,55.661 79.336,54.994 L79.336,54.994 C80.217,53.847 80.985,52.615 81.626,51.313 L81.626,51.313 C82.402,50.06 82.999,48.704 83.398,47.28 L83.398,47.28 C83.594,46.468 83.125,45.643 82.336,45.412 L82.336,45.412 C79.74,44.19 76.99,42.788 74.119,41.076 L74.119,41.076 C71.247,39.363 68.483,37.556 65.849,35.626 L65.849,35.626 C63.27,33.751 60.805,31.721 58.463,29.547 L58.463,29.547 C56.36,27.633 54.494,25.466 52.904,23.094 L52.904,23.094 C51.269,20.794 50.104,18.183 49.481,15.417 L49.481,15.417 C49.476,15.395 49.472,15.374 49.469,15.352 L49.469,15.352 C49.077,13.014 48.88,10.646 48.886,8.276 L48.886,8.276 C48.886,8.119 48.859,7.965 48.8,7.819 L48.8,7.819 L46.064,0.745 C45.956,0.47 45.692,0.29 45.397,0.29 L45.397,0.29 L32.761,0.29 Z" id="path-15"></path>
        <path d="M19.34,2.789 C15.718,4.122 12.411,6.17 9.626,8.809 L9.626,8.809 C6.847,11.501 4.682,14.746 3.275,18.326 L3.275,18.326 C1.69,22.335 0.9,26.604 0.949,30.904 L0.949,30.904 C0.898,35.201 1.689,39.469 3.275,43.473 L3.275,43.473 C4.686,47.051 6.856,50.291 9.64,52.978 L9.64,52.978 C12.424,55.62 15.731,57.672 19.354,59.003 L19.354,59.003 C27.346,61.831 36.089,61.831 44.081,59.003 L44.081,59.003 C47.706,57.67 51.015,55.62 53.802,52.978 L53.802,52.978 L53.85,52.933 L44.469,44.519 C44.405,44.58 44.352,44.657 44.29,44.717 L44.29,44.717 C41.013,48.024 36.812,49.675 31.69,49.675 L31.69,49.675 C26.568,49.675 22.368,48.024 19.092,44.717 L19.092,44.717 C15.784,41.407 14.143,36.804 14.169,30.904 L14.169,30.904 C14.194,25.007 15.835,20.402 19.092,17.092 L19.092,17.092 C22.373,13.781 26.574,12.128 31.69,12.133 L31.69,12.133 C36.543,12.139 40.57,13.625 43.773,16.593 L43.773,16.593 C44.063,16.86 44.509,16.857 44.778,16.567 L44.778,16.567 L52.302,8.494 C52.581,8.191 52.557,7.711 52.238,7.452 L52.238,7.452 C49.798,5.462 47.036,3.885 44.065,2.789 L44.065,2.789 C40.07,1.372 35.885,0.664 31.701,0.664 L31.701,0.664 C27.519,0.664 23.335,1.372 19.34,2.789 L19.34,2.789 Z" id="path-17"></path>
    </defs>
    <g id="Page-1" stroke="none" stroke-width="1" fill="none" fill-rule="evenodd">
        <g id="Artboard" transform="translate(-451.000000, -429.000000)">
            <g id="Group-28" transform="translate(451.000000, 429.000000)">
                <g id="Group-3" transform="translate(0.000000, 79.060000)">
                    <mask id="mask-2" fill="white">
                        <use xlink:href="#path-1"></use>
                    </mask>
                    <g id="Clip-2"></g>
                    <polygon id="Fill-1" fill="#494949" mask="url(#mask-2)" points="-18.115 38.47 121.698 38.47 121.698 -18.212 -18.115 -18.212"></polygon>
                </g>
                <g id="Group-6" transform="translate(325.000000, 79.060000)">
                    <mask id="mask-4" fill="white">
                        <use xlink:href="#path-3"></use>
                    </mask>
                    <g id="Clip-5"></g>
                    <polygon id="Fill-4" fill="#494949" mask="url(#mask-4)" points="-18.141 38.47 121.672 38.47 121.672 -18.212 -18.141 -18.212"></polygon>
                </g>
                <g id="Group-9" transform="translate(12.000000, 4.060000)">
                    <mask id="mask-6" fill="white">
                        <use xlink:href="#path-5"></use>
                    </mask>
                    <g id="Clip-8"></g>
                    <polygon id="Fill-7" fill="#FD437C" mask="url(#mask-6)" points="-18.779 75.681 102.142 75.681 102.142 -18.788 -18.779 -18.788"></polygon>
                </g>
                <g id="Group-12" transform="translate(106.000000, 7.060000)">
                    <mask id="mask-8" fill="white">
                        <use xlink:href="#path-7"></use>
                    </mask>
                    <g id="Clip-11"></g>
                    <polygon id="Fill-10" fill="#22C6C2" mask="url(#mask-8)" points="-18.31 87.796 76.16 87.796 76.16 -18.009 -18.31 -18.009"></polygon>
                </g>
                <g id="Group-15" transform="translate(159.000000, 0.060000)">
                    <mask id="mask-10" fill="white">
                        <use xlink:href="#path-9"></use>
                    </mask>
                    <g id="Clip-14"></g>
                    <polygon id="Fill-13" fill="#494949" mask="url(#mask-10)" points="-18.407 117.47 45.831 117.47 45.831 -18.566 -18.407 -18.566"></polygon>
                </g>
                <g id="Group-18" transform="translate(192.000000, 0.060000)">
                    <mask id="mask-12" fill="white">
                        <use xlink:href="#path-11"></use>
                    </mask>
                    <g id="Clip-17"></g>
                    <polygon id="Fill-16" fill="#494949" mask="url(#mask-12)" points="-17.398 121.248 31.726 121.248 31.726 -18.566 -17.398 -18.566"></polygon>
                </g>
                <g id="Group-21" transform="translate(297.000000, 0.060000)">
                    <mask id="mask-14" fill="white">
                        <use xlink:href="#path-13"></use>
                    </mask>
                    <g id="Clip-20"></g>
                    <polygon id="Fill-19" fill="#494949" mask="url(#mask-14)" points="-16.593 121.248 32.531 121.248 32.531 -18.566 -16.593 -18.566"></polygon>
                </g>
                <g id="Group-24" transform="translate(333.000000, 4.060000)">
                    <mask id="mask-16" fill="white">
                        <use xlink:href="#path-15"></use>
                    </mask>
                    <g id="Clip-23"></g>
                    <polygon id="Fill-22" fill="#FD437C" mask="url(#mask-16)" points="-12.585 75.681 108.336 75.681 108.336 -18.788 -12.585 -18.788"></polygon>
                </g>
                <g id="Group-27" transform="translate(219.000000, 11.060000)">
                    <mask id="mask-18" fill="white">
                        <use xlink:href="#path-17"></use>
                    </mask>
                    <g id="Clip-26"></g>
                    <polygon id="Fill-25" fill="#22C6C2" mask="url(#mask-18)" points="-17.947 80.018 72.743 80.018 72.743 -18.23 -17.947 -18.23"></polygon>
                </g>
            </g>
        </g>
    </g>
</svg>