<svg xmlns="http://www.w3.org/2000/svg" width="32" height="26" viewBox="0 0 32 26">
    <path fill="#FFF" fill-rule="nonzero" stroke="#FFF" d="M31.401 1.468a.51.51 0 0 0-.46-.184.489.489 0 0 0-.116.02L.897 9.533a.522.522 0 0 0-.026.999l10.95 3.627-.979 7.92a.523.523 0 0 0 .512.587.51.51 0 0 0 .314-.107l4.008-3.102 3.513 5.073a.514.514 0 0 0 .882-.06L31.458 2.034a.522.522 0 0 0-.057-.567zm-3.584 1.745l-15.502 10.01-9.485-3.14 24.987-6.87zM12.02 20.973l.713-5.767 2.35 3.395-3.063 2.372zm7.525 2.25l-6.426-9.28 16.568-10.7-10.142 19.98z"/>
</svg>
